<svg width="21" height="21" viewBox="0 0 21 21" fill="none" xmlns="http://www.w3.org/2000/svg">
<g clip-path="url(#clip0_1385_2135)">
<path fill-rule="evenodd" clip-rule="evenodd" d="M9.57715 0.635678C13.8081 0.450283 17.0005 2.15927 19.1543 5.76263C20.3327 8.01476 20.6335 10.38 20.0566 12.8583C19.6555 14.3924 18.9377 15.7528 17.9033 16.9394C17.876 16.9667 17.8486 16.9667 17.8213 16.9394C16.8158 15.9408 15.8178 14.9359 14.8271 13.9247C15.6307 13.3599 16.1297 12.5943 16.3242 11.6279C16.3628 10.7921 16.3491 9.95812 16.2832 9.12591C15.9177 7.72137 15.0222 6.88055 13.5967 6.60345C12.9962 6.54423 12.3946 6.53057 11.792 6.56244C11.416 6.6103 11.2041 6.82219 11.1562 7.19818C11.1426 8.20991 11.1289 9.2216 11.1152 10.2333C8.74999 7.86809 6.38478 5.50288 4.01953 3.13763C4.05616 3.0172 4.13134 2.91466 4.24512 2.83001C5.81077 1.58933 7.58814 0.857884 9.57715 0.635678Z" fill="url(#paint0_linear_1385_2135)"/>
<path fill-rule="evenodd" clip-rule="evenodd" d="M3.05475 3.99902C4.19975 5.08241 5.32768 6.18983 6.43854 7.32129C6.44539 7.35545 6.4522 7.38966 6.45905 7.42383C5.87265 9.41542 5.27792 11.4047 4.67487 13.3916C4.4901 14.0675 4.74304 14.3888 5.43366 14.3555C5.61823 14.2803 5.74813 14.1504 5.82331 13.9658C5.98737 13.4736 6.15143 12.9814 6.3155 12.4893C6.61315 12.4622 6.91391 12.4486 7.21784 12.4482C7.52177 12.4486 7.82253 12.4622 8.12018 12.4893C8.27059 12.9814 8.42095 13.4736 8.57136 13.9658C8.73169 14.3092 8.99829 14.439 9.37116 14.3555C9.7145 14.1951 9.84436 13.9285 9.76081 13.5557C9.36156 12.2144 8.95821 10.8745 8.55085 9.53613C8.56451 9.52247 8.57821 9.50877 8.59186 9.49512C9.43896 10.3217 10.2798 11.1557 11.1143 11.9971C11.128 12.5849 11.1417 13.1729 11.1553 13.7607C11.2032 14.1367 11.4151 14.3486 11.7911 14.3965C12.3659 14.4152 12.9401 14.4152 13.5137 14.3965C14.6553 15.5381 15.797 16.6797 16.9385 17.8213C16.9019 17.9417 16.8267 18.0442 16.713 18.1289C14.0976 20.1565 11.1718 20.7854 7.93561 20.0156C4.34675 18.9424 2.01569 16.6113 0.94245 13.0225C0.138647 9.64852 0.842749 6.64072 3.05475 3.99902Z" fill="url(#paint1_linear_1385_2135)"/>
<path fill-rule="evenodd" clip-rule="evenodd" d="M12.4479 7.85491C13.3369 7.68876 14.0821 7.93485 14.6832 8.59319C14.8359 8.78904 14.9452 9.00782 15.0114 9.24944C15.0571 9.6573 15.0776 10.0675 15.0729 10.4799C15.239 11.369 14.9929 12.1141 14.3346 12.7153C14.1896 12.8123 14.0392 12.9012 13.8834 12.9819C13.4055 12.5245 12.9338 12.0596 12.4684 11.5873C12.4479 10.3432 12.441 9.09912 12.4479 7.85491Z" fill="url(#paint2_linear_1385_2135)"/>
<path fill-rule="evenodd" clip-rule="evenodd" d="M7.15625 9.4541C7.20079 9.45902 7.22815 9.48638 7.23828 9.53613C7.39303 10.0665 7.5571 10.5929 7.73047 11.1152C7.37499 11.1426 7.01954 11.1426 6.66406 11.1152C6.8504 10.5682 7.01446 10.0145 7.15625 9.4541Z" fill="url(#paint3_linear_1385_2135)"/>
</g>
<defs>
<linearGradient id="paint0_linear_1385_2135" x1="12.1803" y1="0.62207" x2="12.1803" y2="16.9599" gradientUnits="userSpaceOnUse">
<stop stop-color="#5FAFE0"/>
<stop offset="1" stop-color="#4A90C2"/>
</linearGradient>
<linearGradient id="paint1_linear_1385_2135" x1="8.77982" y1="3.99902" x2="8.77982" y2="20.3334" gradientUnits="userSpaceOnUse">
<stop stop-color="#5FAFE0"/>
<stop offset="1" stop-color="#4A90C2"/>
</linearGradient>
<linearGradient id="paint2_linear_1385_2135" x1="13.7842" y1="7.80469" x2="13.7842" y2="12.9819" gradientUnits="userSpaceOnUse">
<stop stop-color="#5FAFE0"/>
<stop offset="1" stop-color="#4A90C2"/>
</linearGradient>
<linearGradient id="paint3_linear_1385_2135" x1="7.19727" y1="9.4541" x2="7.19727" y2="11.1358" gradientUnits="userSpaceOnUse">
<stop stop-color="#5FAFE0"/>
<stop offset="1" stop-color="#4A90C2"/>
</linearGradient>
<clipPath id="clip0_1385_2135">
<rect width="21" height="21" fill="white"/>
</clipPath>
</defs>
</svg>
