<svg width="19" height="19" viewBox="0 0 19 19" fill="none" xmlns="http://www.w3.org/2000/svg">
<g clip-path="url(#clip0_1385_2154)">
<path fill-rule="evenodd" clip-rule="evenodd" d="M8.88672 -0.0185547C9.28257 -0.0185547 9.67837 -0.0185547 10.0742 -0.0185547C11.9292 0.296088 13.2219 1.32278 13.9521 3.06152C14.0796 3.41041 14.1662 3.76912 14.2119 4.1377C14.2305 5.12722 14.2367 6.11678 14.2305 7.10645C15.2352 6.9229 15.9836 7.26928 16.4756 8.14551C16.5202 8.267 16.5573 8.39069 16.5869 8.5166C16.6117 11.5348 16.6117 14.5531 16.5869 17.5713C16.3884 18.3078 15.9246 18.7779 15.1953 18.9814C11.3854 18.9814 7.57553 18.9814 3.76563 18.9814C3.03638 18.7779 2.57251 18.3078 2.37402 17.5713C2.34928 14.5531 2.34928 11.5348 2.37402 8.5166C2.56576 7.78061 3.02962 7.31674 3.76563 7.125C4.08699 7.10645 4.40862 7.10029 4.73047 7.10645C4.72427 6.11678 4.73047 5.12722 4.74902 4.1377C5.05176 2.27657 6.07227 0.983929 7.81055 0.259766C8.16661 0.13677 8.52535 0.0439961 8.88672 -0.0185547ZM9.2207 1.57715C10.4856 1.55083 11.469 2.058 12.1709 3.09863C12.4161 3.52509 12.5646 3.98276 12.6162 4.47168C12.6348 5.34984 12.641 6.2281 12.6348 7.10645C10.5319 7.10645 8.42905 7.10645 6.32617 7.10645C6.31998 6.2281 6.32617 5.34984 6.34473 4.47168C6.61733 2.81987 7.57598 1.85503 9.2207 1.57715ZM9.2207 10.2979C10.3087 10.2604 10.9148 10.78 11.0391 11.8564C11.0249 12.4418 10.7713 12.8872 10.2783 13.1924C10.266 13.848 10.2536 14.5036 10.2412 15.1592C10.0223 15.7601 9.62034 15.927 9.03516 15.6602C8.87804 15.5251 8.77287 15.3581 8.71973 15.1592C8.70737 14.5036 8.69498 13.848 8.68262 13.1924C7.98199 12.6985 7.77173 12.0429 8.05176 11.2256C8.29965 10.7341 8.6893 10.4249 9.2207 10.2979Z" fill="url(#paint0_linear_1385_2154)"/>
</g>
<defs>
<linearGradient id="paint0_linear_1385_2154" x1="9.48047" y1="-0.0185547" x2="9.48047" y2="18.9814" gradientUnits="userSpaceOnUse">
<stop stop-color="#5FAFE0"/>
<stop offset="1" stop-color="#4A90C2"/>
</linearGradient>
<clipPath id="clip0_1385_2154">
<rect width="19" height="19" fill="white"/>
</clipPath>
</defs>
</svg>
