<svg width="46" height="51" viewBox="0 0 46 51" fill="none" xmlns="http://www.w3.org/2000/svg">
<g filter="url(#filter0_d_2489_4600)">
<rect width="46" height="46" rx="10" fill="white"/>
<rect x="0.3" y="0.3" width="45.4" height="45.4" rx="9.7" stroke="#161616" stroke-width="0.6"/>
</g>
<g clip-path="url(#clip0_2489_4600)">
<path d="M14.7262 8.94531C14.8786 9.36777 15.0253 9.77012 15.1686 10.173C15.9003 12.2369 16.6325 14.3005 17.3649 16.3638C17.4274 16.5385 17.4346 16.6509 17.2639 16.7839C16.822 17.1341 16.6667 17.6192 16.8889 18.1307C17.1204 18.6545 17.4 19.1559 17.724 19.6286C19.0222 21.5515 20.4872 23.3408 22.1628 24.9536C22.3071 25.0919 22.4586 25.2225 22.6167 25.3449C23.3168 25.8894 23.8572 25.8803 24.5587 25.2971L31.5443 29.5221L30.8169 30.3081C31.0938 30.7794 31.3938 31.2172 31.6179 31.687C32.0458 32.5769 32.1506 33.5007 31.7578 34.4394C31.5856 34.8547 31.3067 35.2177 30.9491 35.4919C30.8676 35.5532 30.8018 35.6327 30.7568 35.724C29.9726 37.4305 27.6469 37.8908 26.2502 36.6124C26.0607 36.4392 26.0213 36.2225 26.1507 36.0651C26.2949 35.8905 26.5045 35.8929 26.7204 36.0713C27.6094 36.8043 28.7273 36.8205 29.5793 36.1148C29.6394 36.067 29.7101 36.0273 29.811 35.9608C28.6677 35.6388 28.2436 35.2321 28.2614 34.5308C28.2753 33.9777 28.6595 33.5442 29.2437 33.4237C29.9476 33.2802 30.452 33.6064 30.8823 34.4906C31.6193 33.5782 31.2895 32.0578 30.2418 30.8516C29.7708 31.2726 29.2089 31.5801 28.5994 31.7506C27.6807 32.008 26.6999 31.9319 25.8324 31.5358C22.9812 30.2747 20.4892 28.493 18.2654 26.3314C16.0133 24.1421 14.1473 21.6648 12.7458 18.8526C12.0246 17.4006 11.4048 15.9031 11.0851 14.3104C10.8009 12.8943 11.2168 11.6499 12.2722 10.659C12.9982 9.98063 13.8574 9.47446 14.7262 8.94531ZM20.1713 25.6789C20.0641 25.5353 19.9906 25.4181 19.8963 25.3181C19.2136 24.5938 18.5236 23.8757 17.8423 23.1499C17.6447 22.9394 17.4365 22.8848 17.2654 23.0308C17.0942 23.1767 17.0961 23.3771 17.2894 23.5929C17.7221 24.0713 18.1505 24.5536 18.5943 25.022C18.8837 25.3301 19.1886 25.6234 19.5078 25.9009C19.5629 25.9398 19.6257 25.9667 19.6921 25.9795C19.7584 25.9924 19.8267 25.991 19.8925 25.9755C19.9949 25.9439 20.0632 25.8004 20.1718 25.6789H20.1713ZM29.6952 35.257L29.7322 35.2092C29.851 35.1951 29.9686 35.1716 30.0837 35.1389C30.1134 35.1245 30.1397 35.1037 30.1604 35.0781C30.1812 35.0524 30.196 35.0226 30.2039 34.9905C30.2519 34.7064 30.0312 34.2987 29.7711 34.1672C29.5509 34.0557 29.2422 34.1088 29.0841 34.2844C28.9398 34.4485 28.9278 34.7207 29.1264 34.914C29.2812 35.0623 29.5033 35.1446 29.6956 35.257H29.6952ZM17.0124 22.3031C17.0004 22.2112 17.0072 22.1725 16.9908 22.15C16.8235 21.9198 16.6725 21.6715 16.4706 21.4754C16.4018 21.4089 16.1821 21.4385 16.0653 21.4955C15.9152 21.5692 15.8854 21.7524 15.9691 21.8931C16.0916 22.1067 16.2405 22.3042 16.4124 22.481C16.4879 22.5557 16.672 22.5829 16.7783 22.5475C16.8846 22.5121 16.9523 22.3705 17.0124 22.3031Z" fill="#3C78EE"/>
<path d="M34.4777 14.1507C34.4349 17.2423 32.089 19.8741 29.0123 20.2406C28.224 20.3397 27.4238 20.2851 26.6564 20.0798C26.5503 20.0467 26.4379 20.0388 26.3282 20.0569C26.2185 20.075 26.1147 20.1186 26.0251 20.1841C25.173 20.7678 24.145 21.0418 23.1138 20.9601C22.9316 20.9467 22.7508 20.9003 22.7239 20.7138C22.7042 20.5788 22.7628 20.41 22.8383 20.288C23.1268 19.8215 23.4383 19.3703 23.735 18.9091C23.8913 18.6666 23.836 18.4546 23.647 18.2393C22.4652 16.8921 21.9536 15.3209 22.1036 13.5407C22.3214 10.949 24.3528 8.67407 26.9155 8.13871C30.2028 7.45169 33.3704 9.37593 34.2272 12.6001C34.3608 13.1039 34.3964 13.6335 34.4777 14.1507ZM28.257 15.4003H25.6606C25.1553 15.4003 25.0837 15.484 25.176 15.9792C25.1817 16.0103 25.1918 16.0409 25.1991 16.0716C25.563 17.5719 26.8574 18.557 28.3945 18.5048C29.8677 18.457 31.0971 17.3461 31.3476 15.8419C31.4024 15.5123 31.3101 15.4013 30.9721 15.4008C30.0672 15.3995 29.1622 15.3994 28.257 15.4003ZM30.7764 12.3192C31.0711 12.135 31.3433 11.9681 31.6125 11.7968C31.838 11.6533 31.8981 11.4581 31.7784 11.2763C31.6645 11.1031 31.4616 11.0681 31.2495 11.1959C30.8168 11.4576 30.3894 11.7222 29.9643 11.9905C29.6725 12.1752 29.6672 12.4551 29.9538 12.6379C30.3918 12.9168 30.8307 13.1957 31.2822 13.4512C31.3405 13.4794 31.404 13.4952 31.4687 13.4976C31.5334 13.5001 31.598 13.4892 31.6582 13.4655C31.9063 13.3474 31.8938 13.0273 31.6443 12.8622C31.3678 12.6785 31.0798 12.5077 30.7764 12.3192ZM25.7303 12.3192C25.4322 12.5053 25.162 12.6723 24.8942 12.8455C24.675 12.9852 24.6158 13.1852 24.7351 13.366C24.8543 13.5469 25.0361 13.5746 25.2563 13.4411C25.6856 13.1804 26.114 12.9177 26.5381 12.6489C26.8372 12.4575 26.8352 12.1795 26.5352 11.9896C26.1246 11.7293 25.7102 11.4753 25.2957 11.2203C25.0553 11.0729 24.8486 11.0973 24.7293 11.2825C24.6101 11.4676 24.6755 11.6576 24.9216 11.815C25.1803 11.9772 25.4428 12.1393 25.7303 12.3192Z" fill="#3C78EE"/>
<path d="M15.3809 8.66851C15.7655 8.62689 16.1059 8.57282 16.4478 8.55703C16.7025 8.54087 16.9556 8.60856 17.1678 8.74967C17.3801 8.89077 17.5398 9.09745 17.6224 9.33783C18.2183 11.0343 18.8052 12.7342 19.3831 14.4374C19.5696 14.9876 19.3547 15.5325 18.8657 15.855C18.6253 16.0129 18.3801 16.1612 18.1008 16.3368C17.1945 13.7815 16.2949 11.2449 15.3809 8.66851Z" fill="#3C78EE"/>
<path d="M24.9219 24.6984C25.1685 24.4736 25.3854 24.2846 25.595 24.0856C26.0277 23.6669 26.6129 23.5789 27.1336 23.8865C28.6616 24.785 30.1861 25.6891 31.707 26.5988C32.2426 26.9193 32.4383 27.4666 32.2503 28.0618C32.1599 28.3488 32.058 28.6321 31.9484 28.945L24.9219 24.6984Z" fill="#3C78EE"/>
<path d="M26.7773 17.2861C27.4322 16.2541 29.1448 16.1508 29.942 17.0947C29.1934 17.9544 27.6601 18.0473 26.7773 17.2861Z" fill="#3C78EE"/>
</g>
<defs>
<filter id="filter0_d_2489_4600" x="0" y="0" width="46" height="50.6957" filterUnits="userSpaceOnUse" color-interpolation-filters="sRGB">
<feFlood flood-opacity="0" result="BackgroundImageFix"/>
<feColorMatrix in="SourceAlpha" type="matrix" values="0 0 0 0 0 0 0 0 0 0 0 0 0 0 0 0 0 0 127 0" result="hardAlpha"/>
<feOffset dy="4.69565"/>
<feComposite in2="hardAlpha" operator="out"/>
<feColorMatrix type="matrix" values="0 0 0 0 0 0 0 0 0 0 0 0 0 0 0 0 0 0 0.25 0"/>
<feBlend mode="normal" in2="BackgroundImageFix" result="effect1_dropShadow_2489_4600"/>
<feBlend mode="normal" in="SourceGraphic" in2="effect1_dropShadow_2489_4600" result="shape"/>
</filter>
<clipPath id="clip0_2489_4600">
<rect width="23.4783" height="29.3478" fill="white" transform="translate(11 8)"/>
</clipPath>
</defs>
</svg>
