<svg width="46" height="51" viewBox="0 0 46 51" fill="none" xmlns="http://www.w3.org/2000/svg">
<g filter="url(#filter0_d_2481_4803)">
<rect width="46" height="46" rx="10" fill="white" shape-rendering="crispEdges"/>
<rect x="0.3" y="0.3" width="45.4" height="45.4" rx="9.7" stroke="#161616" stroke-width="0.6" shape-rendering="crispEdges"/>
<g clip-path="url(#clip0_2481_4803)">
<path d="M8.82031 19.9061V18.3587C8.87468 18.0026 8.92291 17.6451 8.98569 17.2867C10.0117 11.4821 15.5223 7.53656 21.3208 8.45232C27.4148 9.41477 31.5242 15.3434 30.2486 21.3678C28.7655 28.3722 21.3583 31.719 15.2306 28.9909C14.618 28.7198 14.1755 28.791 13.6739 29.2206C12.4159 30.3048 10.9566 30.5651 9.36472 30.1486C9.36147 30.1232 9.36147 30.0974 9.36472 30.072C9.38922 30.0092 9.41602 29.9488 9.44129 29.8875C10.3392 27.8003 10.4364 25.6765 9.733 23.5163C9.51478 22.8463 9.2736 22.1825 9.09443 21.5018C8.96044 20.9827 8.90913 20.4406 8.82031 19.9061ZM26.9914 19.1802C26.9908 18.8697 26.8981 18.5663 26.725 18.3085C26.5519 18.0506 26.3063 17.8499 26.0191 17.7318C25.7319 17.6136 25.4161 17.5833 25.1117 17.6446C24.8073 17.706 24.5279 17.8562 24.3089 18.0764C24.0899 18.2966 23.9411 18.5768 23.8814 18.8815C23.8217 19.1863 23.8537 19.5019 23.9734 19.7884C24.0932 20.075 24.2952 20.3195 24.5539 20.4912C24.8127 20.6629 25.1166 20.754 25.4271 20.7529C25.8427 20.7505 26.2405 20.5838 26.5335 20.2891C26.8266 19.9945 26.9912 19.5958 26.9914 19.1802ZM21.2098 19.1802C21.2078 18.8714 21.1143 18.5701 20.9412 18.3143C20.7681 18.0585 20.5231 17.8598 20.2371 17.7431C19.9511 17.6265 19.637 17.5973 19.3344 17.659C19.0318 17.7208 18.7543 17.8709 18.5369 18.0903C18.3195 18.3097 18.172 18.5886 18.113 18.8918C18.0541 19.195 18.0863 19.5088 18.2055 19.7937C18.3248 20.0786 18.5258 20.3218 18.7832 20.4925C19.0406 20.6632 19.3428 20.7539 19.6516 20.7529C19.8572 20.7524 20.0608 20.7113 20.2505 20.632C20.4402 20.5527 20.6124 20.4366 20.7571 20.2906C20.9019 20.1445 21.0164 19.9713 21.0941 19.7809C21.1718 19.5905 21.2111 19.3866 21.2098 19.181V19.1802ZM12.311 19.1711C12.3094 19.4799 12.3993 19.7823 12.5695 20.04C12.7396 20.2977 12.9823 20.4992 13.267 20.6191C13.5516 20.7389 13.8654 20.7716 14.1686 20.7132C14.4719 20.6547 14.751 20.5077 14.9707 20.2907C15.1904 20.0736 15.3409 19.7963 15.403 19.4938C15.4652 19.1913 15.4363 18.8772 15.3199 18.5911C15.2036 18.305 15.0051 18.0598 14.7495 17.8865C14.4938 17.7132 14.1926 17.6196 13.8837 17.6175C13.4693 17.6159 13.0711 17.7785 12.7764 18.0698C12.4816 18.3611 12.3143 18.7574 12.311 19.1718V19.1711Z" fill="#F47393"/>
<path d="M35.8219 37.676C35.4207 37.5635 34.9957 37.5014 34.6252 37.3253C34.1505 37.1058 33.7046 36.8288 33.2975 36.5007C32.8434 36.1247 32.4246 36.0459 31.8833 36.2924C29.4916 37.3827 26.7856 37.5682 24.2676 36.8144C21.7496 36.0606 19.5906 34.4188 18.1914 32.1938C18.1255 32.0896 18.0658 31.9824 17.9785 31.8362C22.2617 32.2473 25.9707 31.0575 28.9339 27.9419C31.897 24.8264 32.8985 21.0508 32.2623 16.7891C33.0141 17.149 33.7163 17.6048 34.351 18.1451C36.4773 19.9544 37.7499 22.2392 38.1029 25.0132C38.3326 26.8508 38.0424 28.6326 37.4559 30.373C37.0615 31.5406 36.802 32.7213 36.8433 33.9617C36.8822 35.0696 37.1284 36.1604 37.5692 37.1776C37.6059 37.2633 37.6404 37.3506 37.6909 37.4739L36.854 37.676H35.8219Z" fill="#F47393"/>
</g>
</g>
<defs>
<filter id="filter0_d_2481_4803" x="0" y="0" width="46" height="50.6957" filterUnits="userSpaceOnUse" color-interpolation-filters="sRGB">
<feFlood flood-opacity="0" result="BackgroundImageFix"/>
<feColorMatrix in="SourceAlpha" type="matrix" values="0 0 0 0 0 0 0 0 0 0 0 0 0 0 0 0 0 0 127 0" result="hardAlpha"/>
<feOffset dy="4.69565"/>
<feComposite in2="hardAlpha" operator="out"/>
<feColorMatrix type="matrix" values="0 0 0 0 0 0 0 0 0 0 0 0 0 0 0 0 0 0 0.25 0"/>
<feBlend mode="normal" in2="BackgroundImageFix" result="effect1_dropShadow_2481_4803"/>
<feBlend mode="normal" in="SourceGraphic" in2="effect1_dropShadow_2481_4803" result="shape"/>
</filter>
<clipPath id="clip0_2481_4803">
<rect width="29.3592" height="29.35" fill="white" transform="translate(8.82031 8.32812)"/>
</clipPath>
</defs>
</svg>
