<svg width="90" height="94" viewBox="0 0 90 94" fill="none" xmlns="http://www.w3.org/2000/svg">
<g filter="url(#filter0_d_2481_4810)">
<rect width="90" height="90" rx="14" fill="white"/>
<rect x="0.3" y="0.3" width="89.4" height="89.4" rx="13.7" stroke="#161616" stroke-width="0.6"/>
</g>
<g clip-path="url(#clip0_2481_4810)">
<path d="M27.4127 59.4701V50.0389C26.5503 49.8885 25.7095 49.7919 24.9027 49.5915C22.3848 48.9707 20.1455 47.531 18.5379 45.4993C16.9304 43.4676 16.0462 40.9595 16.0247 38.3707C15.9996 34.4646 15.9996 30.5573 16.0247 26.6488C16.0397 23.5735 17.2681 20.6281 19.4437 18.4507C21.6193 16.2733 24.5669 15.0394 27.6476 15.0163C34.7615 14.9841 41.876 14.9841 48.9911 15.0163C55.3538 15.0486 60.5315 20.242 60.5817 26.6004C60.6122 30.4642 60.6014 34.3262 60.5817 38.1899C60.5548 44.747 55.4058 49.9046 48.8208 49.953C45.0846 49.9816 41.3483 49.9673 37.6121 49.953C37.4041 49.9442 37.1967 49.9811 37.0046 50.0612C36.8125 50.1413 36.6404 50.2626 36.5005 50.4165C33.6966 53.2381 30.883 56.0507 28.0599 58.8544C27.8878 59.0316 27.7103 59.1873 27.4127 59.4701ZM46.3879 28.0106C46.3644 27.9126 46.3459 27.8135 46.3324 27.7136C46.18 25.4372 44.9501 24.2883 42.6571 24.2847H37.8918C34.3581 24.2847 30.8227 24.2704 27.289 24.2847C25.3617 24.2954 23.9579 25.6358 23.9418 27.4809C23.9179 30.3156 23.9179 33.151 23.9418 35.9869C23.9439 36.4017 24.0279 36.812 24.1888 37.1944C24.3498 37.5769 24.5847 37.9239 24.88 38.2157C25.1753 38.5075 25.5254 38.7384 25.9101 38.8952C26.2948 39.052 26.7067 39.1316 27.1223 39.1294C32.4685 39.1438 37.8146 39.1438 43.1608 39.1294C43.8954 39.1271 44.6059 38.8675 45.1684 38.3959C45.7309 37.9243 46.1098 37.2707 46.2391 36.5488C46.3108 36.1909 46.3395 35.8169 46.3915 35.416L52.6198 36.9193V26.4913L46.3879 28.0106Z" fill="#B267FF"/>
<path d="M32.543 60.5027C32.6792 60.3488 32.7904 60.2111 32.9159 60.0876C34.7338 58.2711 36.5446 56.4475 38.384 54.6543C38.6376 54.425 38.9636 54.2914 39.3055 54.2767C42.4591 54.2481 45.6126 54.2767 48.7662 54.2553C56.4951 54.2052 62.9134 49.0189 64.5287 41.4793C64.744 40.3856 64.8557 39.2741 64.8622 38.1596C64.9124 35.9279 64.8765 33.6945 64.8783 31.4611V30.6719C69.0161 31.3877 72.003 33.5567 73.8425 37.2505C74.5647 38.6696 74.9477 40.2365 74.9612 41.8283C74.9755 45.9569 75.0365 50.0891 74.9504 54.2159C74.8285 59.9909 70.3088 64.7978 64.552 65.4206C64.2455 65.4546 63.9389 65.5011 63.5857 65.5476V75.0021C63.3006 74.7373 63.1321 74.5887 62.9743 74.4312C60.1596 71.6216 57.3467 68.8095 54.5355 65.995C54.3899 65.8324 54.2101 65.7038 54.009 65.6184C53.8079 65.533 53.5904 65.493 53.372 65.5011C49.6591 65.5226 45.9443 65.5423 42.2332 65.5011C38.1886 65.4653 34.9687 63.7688 32.543 60.5027Z" fill="#B267FF"/>
<path d="M26.9913 29.5861C26.9839 29.303 27.0335 29.0214 27.1372 28.7578C27.2408 28.4942 27.3964 28.254 27.5946 28.0515C27.7929 27.8489 28.0299 27.6882 28.2915 27.5787C28.5531 27.4692 28.8341 27.4132 29.1178 27.4141C29.4015 27.4149 29.6821 27.4725 29.9431 27.5836C30.204 27.6946 30.44 27.8568 30.6371 28.0604C30.8342 28.2641 30.9883 28.5052 31.0904 28.7694C31.1924 29.0336 31.2404 29.3156 31.2313 29.5986C31.2387 29.8817 31.1891 30.1634 31.0855 30.427C30.9818 30.6906 30.8263 30.9308 30.628 31.1333C30.4297 31.3358 30.1928 31.4966 29.9312 31.6061C29.6695 31.7156 29.3885 31.7715 29.1049 31.7707C28.8212 31.7699 28.5405 31.7122 28.2796 31.6012C28.0186 31.4902 27.7826 31.328 27.5855 31.1243C27.3885 30.9206 27.2343 30.6795 27.1323 30.4153C27.0302 30.1511 26.9823 29.8691 26.9913 29.5861Z" fill="#B267FF"/>
</g>
<defs>
<filter id="filter0_d_2481_4810" x="0" y="0" width="90" height="94" filterUnits="userSpaceOnUse" color-interpolation-filters="sRGB">
<feFlood flood-opacity="0" result="BackgroundImageFix"/>
<feColorMatrix in="SourceAlpha" type="matrix" values="0 0 0 0 0 0 0 0 0 0 0 0 0 0 0 0 0 0 127 0" result="hardAlpha"/>
<feOffset dy="4"/>
<feComposite in2="hardAlpha" operator="out"/>
<feColorMatrix type="matrix" values="0 0 0 0 0 0 0 0 0 0 0 0 0 0 0 0 0 0 0.25 0"/>
<feBlend mode="normal" in2="BackgroundImageFix" result="effect1_dropShadow_2481_4810"/>
<feBlend mode="normal" in="SourceGraphic" in2="effect1_dropShadow_2481_4810" result="shape"/>
</filter>
<clipPath id="clip0_2481_4810">
<rect width="59" height="60" fill="white" transform="translate(16 15)"/>
</clipPath>
</defs>
</svg>
