<svg width="412" height="917" viewBox="0 0 412 917" fill="none" xmlns="http://www.w3.org/2000/svg">
<g clip-path="url(#clip0_2481_4700)">
<rect width="412" height="917" fill="#F8F9FB"/>
<g clip-path="url(#clip1_2481_4700)">
<path d="M206.001 992.996C178.721 992.993 151.481 990.915 124.516 986.781L206.01 459.227C206.595 459.316 205.318 459.227 206.01 459.227L208.603 992.987L206.001 992.996Z" fill="#F7EFFF" fill-opacity="0.54"/>
<path d="M338.292 976.407L206.016 459.221C206.18 459.181 205.852 459.274 206.016 459.221L371.194 966.873C360.371 970.399 349.307 973.604 338.292 976.407Z" fill="#F7EFFF" fill-opacity="0.54"/>
<path d="M41.3247 967.054C30.5325 963.555 19.7124 959.661 9.1582 955.476L206.011 459.235C206.206 459.312 205.816 459.173 206.011 459.235L41.3247 967.054Z" fill="#F7EFFF" fill-opacity="0.54"/>
<path d="M450.077 934.022L206.01 459.235C206.483 458.988 205.556 459.572 206.01 459.235L522.437 889.169C499.545 906.016 475.349 921.014 450.077 934.022Z" fill="#F7EFFF" fill-opacity="0.54"/>
<path d="M-105.49 892.77C-128.522 876.202 -150.207 857.837 -170.342 837.848L206.011 459.235C206.449 459.671 205.519 458.88 206.011 459.235L-105.49 892.77Z" fill="#F7EFFF" fill-opacity="0.54"/>
<path d="M617.065 799.869L206.021 459.233C206.178 459.042 205.866 459.44 206.021 459.233L637.935 773.022C631.29 782.154 624.269 791.185 617.065 799.869Z" fill="#F7EFFF" fill-opacity="0.54"/>
<path d="M-225.668 773.385C-232.347 764.224 -238.806 754.736 -244.876 745.19L206.011 459.232C206.113 459.398 205.881 459.055 206.011 459.232L-225.668 773.385Z" fill="#F7EFFF" fill-opacity="0.54"/>
<path d="M682.438 700.3L206.007 459.238C206.22 458.818 205.871 459.664 206.007 459.238L714.848 621.182C706.178 648.379 695.34 674.836 682.438 700.3Z" fill="#F7EFFF" fill-opacity="0.54"/>
<path d="M-300.914 627.147C-309.885 600.062 -316.672 572.303 -321.21 544.135L206.011 459.232C206.085 459.695 205.872 458.818 206.011 459.232L-300.914 627.147Z" fill="#F7EFFF" fill-opacity="0.54"/>
<path d="M738.944 492.764L206.012 459.235C206.03 458.926 206.012 459.544 206.012 459.235L740.004 458.453V459.003C740.004 470.213 739.646 481.57 738.944 492.764Z" fill="#F7EFFF" fill-opacity="0.54"/>
<path d="M206.011 459.233L-328 459.276V459.001C-328 447.94 -327.654 436.749 -326.971 425.719L206.011 459.233C206.011 458.923 205.992 459.523 206.011 459.233Z" fill="#F7EFFF" fill-opacity="0.54"/>
<path d="M206.01 459.231C206.143 459.642 205.933 458.773 206.01 459.231L712.743 290.336C721.742 317.413 728.557 345.167 733.123 373.332L206.01 459.231Z" fill="#F7EFFF" fill-opacity="0.54"/>
<path d="M206.011 459.231L-303.004 297.33C-294.365 270.123 -283.559 243.652 -270.689 218.172L205.998 459.234C205.8 459.642 206.14 458.82 206.011 459.231Z" fill="#F7EFFF" fill-opacity="0.54"/>
<path d="M206.01 459.234C206.137 459.413 205.896 459.061 206.01 459.234L637.356 144.188C644.035 153.329 650.503 162.802 656.576 172.342L206.01 459.234Z" fill="#F7EFFF" fill-opacity="0.54"/>
<path d="M206.011 459.23L-226.29 145.473C-219.636 136.306 -212.593 127.238 -205.358 118.492L205.995 459.23C205.875 459.397 206.125 459.069 206.011 459.23Z" fill="#F7EFFF" fill-opacity="0.54"/>
<path d="M206.012 459.232C206.503 459.584 205.564 458.787 206.012 459.232L517.051 24.9219C540.1 41.4581 561.802 59.795 581.953 79.7604L206.012 459.232Z" fill="#F7EFFF" fill-opacity="0.54"/>
<path d="M206.011 459.236L-110.87 29.163C-87.9943 12.2891 -63.8116 -2.73717 -38.5511 -15.7734L206.001 459.242C205.544 459.474 206.462 458.902 206.011 459.236Z" fill="#F7EFFF" fill-opacity="0.54"/>
<path d="M206.011 459.236C206.187 459.292 205.847 459.172 206.011 459.236L370.141 -49.2188C380.958 -45.7234 391.824 -41.8262 402.397 -37.6447L206.011 459.236Z" fill="#F7EFFF" fill-opacity="0.54"/>
<path d="M206.011 459.231L40.2734 -48.7084C51.1213 -52.2502 62.2164 -55.4767 73.2466 -58.2891L206.011 459.243C205.89 459.262 206.15 459.184 206.011 459.231Z" fill="#F7EFFF" fill-opacity="0.54"/>
<path d="M206.01 459.237C206.684 459.237 205.441 459.147 206.01 459.237L202.406 -74.987C230.711 -75.1839 258.986 -73.1367 286.967 -68.8647L206.01 459.237Z" fill="#F7EFFF" fill-opacity="0.54"/>
<path d="M392.114 69.8283C393.478 74.3391 396.646 78.3019 400.952 81.6318C405.691 85.2963 411.838 88.2195 418.577 90.2892C431.533 94.268 446.781 95.1201 458.621 91.9302C455.264 96.8433 453.089 103.312 451.964 110.506C450.746 118.296 450.754 126.972 451.845 135.52C453.94 151.936 460.055 168.01 469.315 176.413C457.023 175.949 443.262 179.311 432.698 185.145C422.25 190.914 414.752 199.21 415.165 208.746C408.106 202.123 395.86 200.479 383.559 202.369C371.185 204.27 358.562 209.77 350.745 217.644C351.496 206.738 346.23 196.073 338.015 188.279C329.792 180.476 318.556 175.494 307.296 176.019C315.519 168.375 320.166 157.662 320.697 147.282C321.226 136.932 317.662 126.865 309.414 120.525C319.823 120.028 329.957 116.436 336.965 110.895C343.93 105.388 347.866 97.8932 345.765 89.6039C353.097 94.2099 362.573 93.6157 371.215 89.7504C379.909 85.862 387.857 78.6247 392.114 69.8283Z" fill="#F7F4FD" stroke="#414040"/>
<path d="M28.1137 606.828C29.4778 611.339 32.6463 615.302 36.9522 618.632C41.6911 622.296 47.8379 625.22 54.5773 627.289C67.5334 631.268 82.7809 632.12 94.6212 628.93C91.2641 633.843 89.0889 640.312 87.9641 647.506C86.746 655.296 86.7539 663.972 87.8448 672.52C89.9402 688.936 96.0548 705.01 105.315 713.413C93.0229 712.949 79.2625 716.311 68.6975 722.145C58.2497 727.914 50.7519 736.21 51.1653 745.746C44.1056 739.123 31.8601 737.479 19.5587 739.369C7.18519 741.27 -5.43806 746.77 -13.2551 754.644C-12.5037 743.738 -17.7703 733.073 -25.9847 725.279C-34.2083 717.476 -45.4437 712.494 -56.7041 713.019C-48.4808 705.375 -43.8336 694.662 -43.3032 684.282C-42.7743 673.932 -46.3378 663.865 -54.5856 657.525C-44.1769 657.028 -34.0429 653.436 -27.0347 647.895C-20.0703 642.388 -16.134 634.893 -18.2351 626.604C-10.9027 631.21 -1.42732 630.616 7.21499 626.75C15.9089 622.862 23.8571 615.625 28.1137 606.828Z" fill="#F7F4FD" stroke="#414040"/>
</g>
</g>
<defs>
<clipPath id="clip0_2481_4700">
<rect width="412" height="917" fill="white"/>
</clipPath>
<clipPath id="clip1_2481_4700">
<rect width="1068" height="1068" fill="white" transform="translate(-328 -75)"/>
</clipPath>
</defs>
</svg>
