<svg width="36" height="36" viewBox="0 0 36 36" fill="none" xmlns="http://www.w3.org/2000/svg">
<rect width="36" height="36" rx="10" fill="#FFDFDF"/>
<g clip-path="url(#clip0_2481_5521)">
<path d="M9.93292 19.684C9.46966 19.6841 9.07914 19.325 9.04699 18.8559L8.76967 14.8127C8.74656 14.4762 8.91597 14.1556 9.20692 13.985L10.2363 13.375L11.2453 13.9L11.1307 14.918L10.5811 15.2403L10.8207 18.7343C10.8543 19.2241 10.4845 19.6484 9.99466 19.6819C9.97394 19.6833 9.95336 19.684 9.93292 19.684Z" fill="#FFB69E"/>
<path d="M13.7075 12.377C13.4591 11.9535 12.9145 11.8114 12.491 12.0597L10.2363 13.3752L11.1307 14.9183L13.3903 13.5934C13.8138 13.3451 13.9558 12.8005 13.7075 12.377Z" fill="#4699F2"/>
<path d="M29.0982 7.16406H21.3305C20.8319 7.16406 20.4277 7.56822 20.4277 8.06678V27.9305C20.4277 28.4291 20.8319 28.8333 21.3305 28.8333H29.0982C29.5967 28.8333 30.0009 28.4291 30.0009 27.9305V8.06678C30.0009 7.56822 29.5967 7.16406 29.0982 7.16406Z" fill="#46738C"/>
<path d="M7.06565 25.2234C6.55607 25.2234 6.10527 24.8571 6.01569 24.3379C5.91557 23.7573 6.30501 23.2055 6.88555 23.1053L10.7302 22.442L10.891 19.8188L11.9693 19.3828L13.0225 20.1687L12.8022 23.4227C12.7689 23.9137 12.4041 24.3182 11.9192 24.4019L7.24827 25.2077C7.18691 25.2183 7.12583 25.2234 7.06565 25.2234Z" fill="#5F6E9B"/>
<path d="M17.086 28.8373C16.5472 28.8373 16.0844 28.4304 16.0265 27.8826L15.5076 22.9732L13.9322 19.6312C13.681 19.0982 13.9093 18.4626 14.4422 18.2114C14.9752 17.9603 15.6108 18.1886 15.862 18.7215L17.5143 22.2267C17.5652 22.3348 17.5976 22.4506 17.6102 22.5694L18.1481 27.6583C18.2101 28.2442 17.7853 28.7693 17.1994 28.8312C17.1614 28.8354 17.1235 28.8373 17.086 28.8373Z" fill="#414B82"/>
<path d="M15.8215 12.3207L13.1836 11.9491C12.5422 11.8588 11.949 12.3055 11.8586 12.9469L10.8906 19.8196L13.8415 20.3041C14.9438 20.4851 15.9786 19.7222 16.1317 18.6157L16.8193 13.6457C16.9096 13.0042 16.4629 12.411 15.8215 12.3207Z" fill="#64AFFF"/>
<path d="M16.9407 10.9952C17.7061 10.2298 17.7061 8.98891 16.9407 8.22353C16.1753 7.45815 14.9344 7.45815 14.169 8.22353C13.4037 8.98891 13.4037 10.2298 14.169 10.9952C14.9344 11.7606 16.1753 11.7606 16.9407 10.9952Z" fill="#FFB69E"/>
<path d="M17.9389 15.556C17.843 15.556 17.7459 15.5405 17.6515 15.5082L16.3662 15.0624L16.248 14.0483L16.9655 13.3908L17.6127 13.6159L19.3655 11.2572C19.6583 10.8631 20.2152 10.7811 20.6092 11.0739C21.0032 11.3668 21.0853 11.9236 20.7924 12.3176L18.6526 15.1972C18.4815 15.4274 18.2146 15.556 17.9389 15.556Z" fill="#FFB69E"/>
<path d="M16.9653 13.3925L14.8975 12.6731C14.4329 12.5142 13.9276 12.762 13.7688 13.2266C13.6099 13.6911 13.8577 14.1965 14.3223 14.3553L16.366 15.0641L16.9653 13.3925Z" fill="#4699F2"/>
<path d="M26.3606 17.9602L23.8821 16.0296C23.6222 15.8272 23.2433 16.0123 23.2433 16.3417V16.9656H19.8923C19.6594 16.9656 19.4707 17.1543 19.4707 17.3872V19.1574C19.4707 19.3902 19.6594 19.5789 19.8923 19.5789H23.2433V20.2028C23.2433 20.5322 23.6222 20.7173 23.8821 20.515L26.3606 18.5844C26.5639 18.426 26.5639 18.1186 26.3606 17.9602Z" fill="#E64937"/>
</g>
<defs>
<clipPath id="clip0_2481_5521">
<rect width="24" height="24" fill="white" transform="translate(6 6)"/>
</clipPath>
</defs>
</svg>
