<svg width="44" height="44" viewBox="0 0 44 44" fill="none" xmlns="http://www.w3.org/2000/svg">
<circle cx="22" cy="22" r="22" fill="url(#paint0_linear_1527_1741)"/>
<path d="M20.2127 32.9454C20.517 33.0755 20.8708 32.9669 21.0485 32.6862L29.1344 19.8385C29.2654 19.6306 29.2733 19.368 29.1548 19.1535C29.0363 18.9383 28.81 18.8047 28.5645 18.8047H23.168L25.175 10.8397C25.2559 10.5179 25.0921 10.1856 24.7874 10.0546C24.4847 9.92434 24.1287 10.0335 23.9517 10.3139L15.8657 23.1615C15.7348 23.3695 15.7269 23.632 15.8453 23.8465C15.9638 24.0617 16.1902 24.1953 16.4356 24.1953H21.8322L19.8252 32.1604C19.7442 32.4822 19.908 32.8145 20.2127 32.9454Z" fill="white"/>
<defs>
<linearGradient id="paint0_linear_1527_1741" x1="22" y1="0" x2="22" y2="44" gradientUnits="userSpaceOnUse">
<stop stop-color="#5FAFE0"/>
<stop offset="1" stop-color="#4A90C2"/>
</linearGradient>
</defs>
</svg>
