<svg width="44" height="44" viewBox="0 0 44 44" fill="none" xmlns="http://www.w3.org/2000/svg">
<circle cx="22" cy="22" r="22" fill="url(#paint0_linear_1527_1746)"/>
<path d="M30.1273 18.5589L28.7709 19.1068C28.5962 19.1776 28.4127 19.2134 28.2257 19.2134C27.8249 19.2134 27.4371 19.0442 27.1628 18.7493C26.8899 18.4564 26.7489 18.0584 26.7771 17.6576L26.8795 16.1987L25.9384 15.0794C25.7294 14.8306 25.6249 14.526 25.6104 14.2139H16.6915C15.0759 14.2139 13.7559 15.5339 13.7559 17.1564V25.3376C13.7559 26.9601 15.0759 28.2732 16.6915 28.2732H18.9259L18.8777 29.6414C18.864 30.1982 19.1596 30.707 19.6546 30.9682C19.8677 31.0782 20.0946 31.1332 20.3284 31.1332C20.6309 31.1332 20.9334 31.0301 21.1877 30.8376L24.5977 28.2732H28.5302C30.1459 28.2732 31.4659 26.9601 31.4659 25.3376V19.0999L30.1273 18.5589ZM22.9525 23.4264H19.3439C19.0022 23.4264 18.7251 23.1493 18.7251 22.8076C18.7251 22.4659 19.0022 22.1889 19.3439 22.1889H22.9525C23.2942 22.1889 23.5713 22.4659 23.5713 22.8076C23.5713 23.1493 23.2942 23.4264 22.9525 23.4264ZM26.1515 20.301H19.3452C19.0035 20.301 18.7265 20.0239 18.7265 19.6822C18.7265 19.3406 19.0035 19.0635 19.3452 19.0635H26.1515C26.4932 19.0635 26.7702 19.3406 26.7702 19.6822C26.7702 20.0239 26.4932 20.301 26.1515 20.301Z" fill="white"/>
<path d="M30.4845 11.6868L31.4807 13.2811L33.3046 13.7355C33.6071 13.8112 33.726 14.1769 33.526 14.4162L32.3173 15.8558L32.4487 17.7306C32.4707 18.0414 32.1592 18.2682 31.8698 18.1514L30.127 17.4467L28.3842 18.1514C28.0954 18.2682 27.7833 18.042 27.8053 17.7306L27.9366 15.8558L26.728 14.4162C26.5272 14.1776 26.6468 13.8112 26.9493 13.7355L28.7733 13.2811L29.7695 11.6868C29.9338 11.4221 30.3195 11.4221 30.4845 11.6868Z" fill="white"/>
<defs>
<linearGradient id="paint0_linear_1527_1746" x1="22" y1="0" x2="22" y2="44" gradientUnits="userSpaceOnUse">
<stop stop-color="#5FAFE0"/>
<stop offset="1" stop-color="#4A90C2"/>
</linearGradient>
</defs>
</svg>
