<svg width="44" height="44" viewBox="0 0 44 44" fill="none" xmlns="http://www.w3.org/2000/svg">
<circle cx="22" cy="22" r="22" fill="url(#paint0_linear_1527_1740)"/>
<path d="M24.1193 28.001C23.6928 27.5621 23.1104 27.316 22.4992 27.316H22.4582C21.1621 27.316 20.1162 28.366 20.1162 29.658C20.1162 30.95 21.1621 32 22.4582 32H22.4992C23.7953 31.9795 24.8248 30.9131 24.8043 29.617C24.792 29.01 24.5459 28.4316 24.1193 28.001ZM26.8715 12.6119C25.8379 11.5496 24.3654 11.0082 22.4992 11H22.4582C20.9816 11 19.7225 11.402 18.7135 12.1977C18.2336 12.575 17.807 13.0139 17.442 13.502C17.0893 13.9777 16.8021 14.5027 16.5971 15.0605C16.5068 15.3107 16.6217 15.5855 16.8637 15.6922L19.0744 16.6643C19.3287 16.775 19.624 16.6643 19.7348 16.41C19.7389 16.4059 19.7389 16.3977 19.743 16.3936C19.948 15.8932 20.2762 15.401 20.7191 14.9334C21.1129 14.515 21.683 14.3141 22.4582 14.3141H22.4992C23.2949 14.3223 23.8896 14.5314 24.3162 14.958C24.7469 15.3928 24.9561 15.9178 24.9561 16.574C24.9561 17.1236 24.792 17.6281 24.4557 18.1162C24.0865 18.6535 23.541 19.2482 22.8355 19.884C22.7207 19.9906 22.6059 20.0932 22.5033 20.1957C21.8758 20.8109 21.441 21.3811 21.1826 21.9348C21.0309 22.2588 20.916 22.6648 20.834 23.157C20.7479 23.7354 20.7027 24.3178 20.7027 24.9043C20.6986 25.1832 20.9201 25.4088 21.1949 25.417H21.2072H23.8404C24.1152 25.417 24.3367 25.1996 24.3408 24.9248C24.3613 23.8051 24.4885 23.2596 24.5951 22.9971C24.6977 22.7428 25.0299 22.2383 26.0266 21.2785C26.851 20.491 27.4662 19.7199 27.8477 18.9898C28.2414 18.2352 28.4424 17.3861 28.4424 16.4674C28.4342 14.9785 27.9092 13.6783 26.8715 12.6119Z" fill="white"/>
<defs>
<linearGradient id="paint0_linear_1527_1740" x1="22" y1="0" x2="22" y2="44" gradientUnits="userSpaceOnUse">
<stop stop-color="#5FAFE0"/>
<stop offset="1" stop-color="#4A90C2"/>
</linearGradient>
</defs>
</svg>
