<svg width="44" height="44" viewBox="0 0 44 44" fill="none" xmlns="http://www.w3.org/2000/svg">
<circle cx="22" cy="22" r="22" fill="url(#paint0_linear_1385_2350)"/>
<path d="M17.6169 18.5488L17.4032 18.5488L17.0039 20.541L18.0162 20.541L17.6169 18.5488ZM25.6937 22.5332C25.9093 23.1109 26.196 23.5785 26.5134 23.9764C26.8307 23.5785 27.1507 23.1109 27.3663 22.5332L25.6937 22.5332Z" fill="white"/>
<path d="M28.543 17.0215L22.3428 17.0215L23.6356 27.3702C23.6584 27.7935 23.5424 28.192 23.2655 28.504L21.0762 31L28.543 31C29.3689 31 30.0408 30.3298 30.0408 29.5059L30.0408 18.5488C30.0408 17.7249 29.3689 17.0215 28.543 17.0215ZM28.543 22.5332L28.4097 22.5332C28.1256 23.4424 27.6751 24.1538 27.2069 24.7147C27.5737 25.0492 27.9658 25.3236 28.3558 25.6309C28.5708 25.8026 28.6059 26.1158 28.4333 26.3308C28.2615 26.5455 27.9463 26.5803 27.7317 26.4081C27.308 26.0746 26.9103 25.7953 26.5127 25.4313C26.115 25.7953 25.7506 26.0746 25.3269 26.4081C25.1123 26.5803 24.7971 26.5455 24.6253 26.3308C24.4527 26.1158 24.4878 25.8026 24.7029 25.6309C25.0928 25.3236 25.4517 25.0492 25.8184 24.7147C25.3503 24.1539 24.933 23.4424 24.649 22.5332L24.5156 22.5332C24.2397 22.5332 24.0164 22.3104 24.0164 22.0352C24.0164 21.7599 24.2397 21.5371 24.5156 21.5371L26.0134 21.5371L26.0134 21.0391C26.0134 20.7638 26.2367 20.541 26.5127 20.541C26.7886 20.541 27.0119 20.7638 27.0119 21.0391L27.0119 21.5371L28.543 21.5371C28.8189 21.5371 29.0422 21.7599 29.0422 22.0352C29.0422 22.3104 28.8189 22.5332 28.543 22.5332Z" fill="white"/>
<path d="M21.1267 15.3088C21.0336 14.5627 20.3944 14 19.6407 14L14.4978 14C13.6719 14 13 14.6702 13 15.4941L13 26.5176C13 27.3415 13.6719 28.0117 14.4978 28.0117L22.3711 28.0117C22.5168 27.8456 22.6389 27.7417 22.644 27.5249C22.6453 27.4705 21.1335 15.3628 21.1267 15.3088ZM19.1224 23.5196C18.8576 23.5739 18.5895 23.4025 18.5349 23.129L18.2158 21.5371L16.8042 21.5371L16.4851 23.129C16.4315 23.3984 16.1711 23.5755 15.8976 23.5196C15.6275 23.4656 15.452 23.2034 15.5061 22.9335L16.5046 17.953C16.5514 17.7205 16.7562 17.5527 16.9941 17.5527L18.0259 17.5527C18.2638 17.5527 18.4686 17.7205 18.5154 17.953L19.5139 22.9335C19.568 23.2034 19.3925 23.4656 19.1224 23.5196ZM18.8334 29.0078L18.919 29.6912C18.9762 30.1488 19.281 30.6155 19.7824 30.8485L21.4585 29.0078L18.8334 29.0078Z" fill="white"/>
<defs>
<linearGradient id="paint0_linear_1385_2350" x1="22" y1="0" x2="22" y2="44" gradientUnits="userSpaceOnUse">
<stop stop-color="#5FAFE0"/>
<stop offset="1" stop-color="#4A90C2"/>
</linearGradient>
</defs>
</svg>
