<svg width="36" height="36" viewBox="0 0 36 36" fill="none" xmlns="http://www.w3.org/2000/svg">
<rect width="36" height="36" rx="10" fill="#F3E4FF"/>
<path d="M28.9507 26.7889C29.2648 27.096 29.0495 27.6255 28.6118 27.6255H21.9377C19.1036 27.6255 16.6436 26.0231 15.4189 23.6725C14.886 22.656 14.5859 21.4983 14.5859 20.2737C14.5859 16.3207 17.706 13.0983 21.6131 12.9326C21.7189 12.9255 21.8283 12.9219 21.9377 12.9219C26.0001 12.9219 29.293 16.2114 29.293 20.2737C29.293 22.1902 28.5624 23.9301 27.3625 25.2395L28.9507 26.7889Z" fill="#C175FF"/>
<path d="M22.1177 15.7284C22.1177 19.7061 19.2166 23.0237 15.4189 23.6696C14.886 22.6531 14.5859 21.4954 14.5859 20.2708C14.5859 16.3178 17.706 13.0955 21.6131 12.9297C21.9413 13.8014 22.1177 14.7437 22.1177 15.7284Z" fill="#B244F1"/>
<path d="M23.1164 21.0278H20.7623L21.9395 18.1941L23.1164 21.0278ZM25.1035 23.0394L22.6294 17.2017C22.5729 17.0712 22.4918 16.9652 22.3859 16.8806C22.2941 16.81 22.1811 16.7641 22.0541 16.7536C22.0329 16.75 22.0117 16.75 21.9871 16.75H21.8918C21.7364 16.75 21.6023 16.7958 21.4929 16.8806C21.387 16.9652 21.3058 17.0712 21.2459 17.2017L19.2694 21.8713L18.7753 23.0394C18.7364 23.1312 18.7188 23.2053 18.7188 23.2689C18.7188 23.4135 18.7682 23.5405 18.8635 23.6394C18.9623 23.7418 19.0894 23.7947 19.2447 23.7947C19.3505 23.7947 19.4494 23.763 19.5376 23.7065C19.6258 23.6499 19.6964 23.5688 19.7423 23.4664L20.3494 22.0088H23.5294L24.14 23.47C24.1859 23.5688 24.2529 23.6499 24.3412 23.7065C24.4294 23.763 24.5281 23.7947 24.6341 23.7947C24.7894 23.7947 24.9164 23.7418 25.0153 23.6394C25.1106 23.5405 25.1599 23.4135 25.1599 23.2689C25.1599 23.2053 25.1423 23.1312 25.1035 23.0394Z" fill="#161616"/>
<path d="M22.0543 16.7536C21.793 18.7935 20.766 20.6006 19.2695 21.8713L21.246 17.2017C21.306 17.0712 21.3872 16.9652 21.4931 16.8806C21.6025 16.7958 21.7366 16.75 21.8919 16.75H21.9872C22.0119 16.75 22.0331 16.75 22.0543 16.7536Z" fill="#E5E8EF"/>
<path d="M21.4141 15.7268C21.4141 19.7891 18.1211 23.0786 14.0623 23.0786H7.38818C6.95054 23.0786 6.73529 22.5492 7.04937 22.2421L8.63761 20.6926C7.43756 19.3832 6.70703 17.6433 6.70703 15.7268C6.70703 11.6645 10 8.375 14.0623 8.375C18.1211 8.375 21.4141 11.6645 21.4141 15.7268Z" fill="#5CBEFF"/>
<path d="M21.4118 15.7302C21.4118 19.7891 18.1188 23.082 14.06 23.082H12.207C16.2659 23.082 19.5588 19.7891 19.5588 15.7302C19.5588 11.982 16.7565 8.88683 13.1318 8.43497C13.4353 8.3962 13.7459 8.375 14.06 8.375C18.1188 8.375 21.4118 11.668 21.4118 15.7302Z" fill="#079CFF"/>
<path opacity="0.28" d="M9.59687 13.597C9.97999 12.5044 9.90825 11.4845 9.43664 11.3192C8.96503 11.1538 8.27213 11.9055 7.88901 12.9982C7.50589 14.0908 7.57763 15.1106 8.04924 15.276C8.52086 15.4413 9.21375 14.6896 9.59687 13.597Z" fill="#161616"/>
<path d="M17.5902 13.263H14.6135C14.6453 13.0221 14.7134 12.7315 14.8628 12.4775C15.011 12.2254 14.9269 11.9009 14.6748 11.7527C14.4229 11.6046 14.0983 11.6889 13.9501 11.9409C13.6858 12.3903 13.5848 12.8896 13.5477 13.263H10.5314C10.2389 13.263 10.002 13.5002 10.002 13.7924C10.002 14.0847 10.2389 14.3218 10.5314 14.3218H11.3978C11.4477 15.1354 11.7449 16.641 13.1289 17.986C12.6886 18.2654 12.171 18.5261 11.5559 18.7536C11.2817 18.8549 11.1414 19.1593 11.2428 19.4336C11.3219 19.6473 11.5242 19.7797 11.7394 19.7797C11.8004 19.7797 11.8625 19.769 11.923 19.7466C12.7471 19.4421 13.4249 19.081 13.9847 18.6897C14.5445 19.081 15.2223 19.4421 16.0464 19.7466C16.1069 19.769 16.1689 19.7797 16.23 19.7797C16.4452 19.7797 16.6475 19.6473 16.7266 19.4336C16.828 19.1593 16.6877 18.8549 16.4135 18.7536C15.7977 18.5259 15.2795 18.2659 14.8388 17.9877C16.2243 16.6422 16.5217 15.1358 16.5716 14.3218H17.5902C17.8826 14.3218 18.1196 14.0847 18.1196 13.7924C18.1196 13.5002 17.8826 13.263 17.5902 13.263ZM13.9803 17.3427C12.7422 16.2211 12.4872 14.9783 12.4471 14.3218H15.5191C15.4746 14.9757 15.2133 16.2211 13.9803 17.3427Z" fill="#161616"/>
</svg>
