<svg width="44" height="44" viewBox="0 0 44 44" fill="none" xmlns="http://www.w3.org/2000/svg">
<circle cx="22" cy="22" r="22" fill="url(#paint0_linear_1527_1744)"/>
<path d="M29.9966 20.8842C29.9449 18.1566 29.5703 16.145 29.5754 16.143C29.4195 15.8345 29.1462 15.5766 28.8117 15.4449C26.6165 14.5814 24.4578 13.7572 22.3529 13.054C22.1378 12.982 21.911 12.982 21.6961 13.054C19.5919 13.7554 17.4335 14.5781 15.2383 15.4405C14.943 15.5566 14.6954 15.7716 14.534 16.0328C14.5464 16.0343 14.0829 17.502 14.0038 20.7435C13.957 23.9854 14.3551 24.9564 14.3419 24.9578C14.5574 25.6703 14.9606 26.395 15.5384 27.132C16.1842 27.955 17.0568 28.8052 18.111 29.641C19.8559 31.03 21.4891 31.8601 21.5573 31.8895C21.7055 31.9629 21.8624 32.0004 22.0242 32C22.1862 32 22.3433 31.9625 22.4911 31.8887C22.5598 31.8594 24.1947 31.0267 25.9388 29.638C26.9933 28.8016 27.866 27.9513 28.5121 27.1286C29.1312 26.3392 29.5498 25.5648 29.752 24.804C29.7439 24.803 30.0367 23.6124 29.9961 20.8846L29.9966 20.8842ZM22.8931 23.0116V24.7399C22.8931 25.2268 22.5042 25.6212 22.0241 25.6216C21.544 25.6216 21.1547 25.2272 21.1547 24.7402V23.0361C20.5283 22.7203 20.0973 22.0649 20.0973 21.3076C20.0973 20.2418 20.9491 19.3775 22 19.3775C23.0509 19.3775 23.9026 20.2413 23.903 21.3072C23.903 22.0457 23.494 22.6873 22.8931 23.0116V23.0116Z" fill="white"/>
<defs>
<linearGradient id="paint0_linear_1527_1744" x1="22" y1="0" x2="22" y2="44" gradientUnits="userSpaceOnUse">
<stop stop-color="#5FAFE0"/>
<stop offset="1" stop-color="#4A90C2"/>
</linearGradient>
</defs>
</svg>
