<svg width="36" height="36" viewBox="0 0 36 36" fill="none" xmlns="http://www.w3.org/2000/svg">
<rect width="36" height="36" rx="10" fill="#D9F0FF"/>
<path d="M23.9334 24.4144L19.2267 28.1594C18.5849 28.6699 17.6775 28.6763 17.0288 28.1747L12.1803 24.4261C9.97841 22.7237 8.72656 20.3309 8.72656 17.8244V12.9744C8.72656 12.2946 9.11366 11.6741 9.72425 11.3751L17.3641 7.6345C17.8659 7.38888 18.4539 7.39291 18.9522 7.64547L26.2989 11.3691C26.8974 11.6725 27.2745 12.2865 27.2745 12.9574V17.9009C27.2747 20.3626 26.067 22.7167 23.9334 24.4144Z" fill="#478CF7"/>
<path d="M26.2995 11.367L26.192 11.3125C26.2865 11.5314 26.3377 11.7707 26.3377 12.0178V16.9612C26.3377 19.4229 25.1301 21.7771 22.9963 23.4748L18.2896 27.2197C17.6479 27.7303 16.7405 27.7367 16.0917 27.235L11.2433 23.4865C11.0843 23.3635 10.9302 23.237 10.7812 23.1071C11.1919 23.5796 11.6597 24.0212 12.1808 24.424L17.0292 28.1725C17.678 28.6741 18.5854 28.6678 19.2271 28.1572L23.9338 24.4123C26.0675 22.7146 27.2752 20.3605 27.2752 17.8987V12.9553C27.2752 12.2843 26.898 11.6703 26.2995 11.367Z" fill="#377DE2"/>
<path d="M26.4965 11.4844C26.6943 11.7746 26.8057 12.1224 26.8057 12.4871V17.4306C26.8057 19.8923 25.5981 22.2464 23.4643 23.9441L18.7576 27.6891C18.1159 28.1996 17.2085 28.206 16.5598 27.7043L11.7113 23.9558C11.4618 23.763 11.2246 23.5612 11 23.3515C11.3555 23.7327 11.7496 24.0919 12.18 24.4246L17.0285 28.1731C17.6772 28.6747 18.5847 28.6684 19.2264 28.1578L23.9331 24.4129C26.0668 22.7152 27.2744 20.3611 27.2744 17.8993V12.9559C27.2745 12.3622 26.9791 11.8132 26.4965 11.4844Z" fill="#2266D3"/>
<path d="M9.28906 18.0122C9.18594 18.0122 9.10156 17.9279 9.10156 17.8247C9.10156 17.7216 9.18594 17.6372 9.28906 17.6372C9.39219 17.6372 9.47656 17.7216 9.47656 17.8247C9.47656 17.9279 9.39219 18.0122 9.28906 18.0122ZM9.28906 17.2622C9.18594 17.2622 9.10156 17.1779 9.10156 17.0747V12.9751C9.10156 12.4426 9.41094 11.9466 9.88906 11.7122L17.5288 7.97162C17.6197 7.92662 17.735 7.96693 17.78 8.05787C17.825 8.15068 17.7866 8.26318 17.6938 8.30818L10.0541 12.0488C9.7025 12.2204 9.47563 12.5832 9.47656 12.9751V17.0747C9.47656 17.1779 9.39219 17.2622 9.28906 17.2622Z" fill="#5E9CF7"/>
<path d="M21.7121 23.3948H14.2898C14.0208 23.3948 13.8027 23.1768 13.8027 22.9078V16.6823C13.8027 16.4134 14.0208 16.1953 14.2898 16.1953H21.712C21.981 16.1953 22.1991 16.4134 22.1991 16.6823V22.9078C22.1991 23.1768 21.9811 23.3948 21.7121 23.3948Z" fill="#FFA91A"/>
<path d="M21.712 16.1953H21.2616V21.9702C21.2616 22.2392 21.0435 22.4572 20.7745 22.4572H13.8027V22.9077C13.8027 23.1767 14.0208 23.3947 14.2898 23.3947H21.712C21.981 23.3947 22.1991 23.1767 22.1991 22.9077V16.6823C22.199 16.4134 21.981 16.1953 21.712 16.1953Z" fill="#F79219"/>
<path d="M21.561 16.1969H20.3434V14.052C20.3434 12.7605 19.2927 11.7097 18.0012 11.7097C16.7097 11.7097 15.6589 12.7605 15.6589 14.052V16.1969H14.4414V14.052C14.4414 12.0891 16.0383 10.4922 18.0012 10.4922C19.9641 10.4922 21.561 12.089 21.561 14.052V16.1969Z" fill="#E6E7E8"/>
<path d="M20.2812 11.3125C20.7933 11.9292 21.1017 12.7207 21.1017 13.583V15.7279H20.3529V16.1967H21.5704V14.0518C21.5704 12.9513 21.0683 11.9659 20.2812 11.3125Z" fill="#D1D3D4"/>
<path d="M19.1476 21.1806L18.5423 19.4903C18.8061 19.3148 18.9802 19.0151 18.9802 18.6745C18.9802 18.1337 18.5417 17.6953 18.001 17.6953C17.4602 17.6953 17.0217 18.1337 17.0217 18.6745C17.0217 19.0151 17.1958 19.3148 17.4596 19.4903L16.8543 21.1806C16.7668 21.4249 16.9479 21.682 17.2074 21.682H18.7947C19.0541 21.6819 19.2351 21.4248 19.1476 21.1806Z" fill="#995222"/>
<path d="M19.1471 21.1852L18.5418 19.4949C18.8056 19.3195 18.9797 19.0198 18.9797 18.6792C18.9797 18.3088 18.7741 17.9867 18.4709 17.8203C18.5471 17.9597 18.5906 18.1196 18.5906 18.2896C18.5906 18.6302 18.4165 18.9299 18.1527 19.1053L18.7581 20.7957C18.8455 21.04 18.6645 21.2971 18.405 21.2971H16.8323C16.824 21.5021 16.9868 21.6867 17.2067 21.6867H18.7941C19.0536 21.6866 19.2346 21.4294 19.1471 21.1852Z" fill="#8C3F0A"/>
</svg>
