<svg width="36" height="36" viewBox="0 0 36 36" fill="none" xmlns="http://www.w3.org/2000/svg">
<rect width="36" height="36" rx="10" fill="#FDF6D9"/>
<g clip-path="url(#clip0_2481_5544)">
<path d="M23.8062 24.8649C23.8254 24.2727 23.3464 23.7809 22.7571 23.7809H22.7549V23.7805H22.8426C23.4147 23.78 23.8779 23.3158 23.8776 22.7438C23.8772 22.1718 23.413 21.7114 22.841 21.7118C22.364 21.7118 19.0383 21.7118 18.5314 21.7118C18.4113 21.7118 18.3262 21.5944 18.3635 21.4803L18.7413 20.3273C19.0628 19.3461 19.0057 18.6779 19.0057 17.5286C19.0057 16.8525 18.4576 16.3047 17.7816 16.3047C17.1675 16.3047 16.6484 16.7595 16.568 17.3683C16.4792 18.042 16.4191 19.2399 15.3057 20.3121L14.5196 21.0687C14.0818 21.4904 13.4977 21.7259 12.89 21.7259H11.8574V28.5202C12.1383 28.52 12.7026 28.52 12.703 28.52C14.2036 28.5191 14.0664 30.005 15.9326 30.0034H22.284C22.8553 30.0034 23.3184 29.5401 23.3184 28.9688C23.3184 28.3973 22.8553 27.9343 22.284 27.9343H22.4662C23.0283 27.9343 23.5084 27.497 23.5271 26.9351C23.5467 26.3477 23.0763 25.8652 22.4933 25.8652H22.7449C23.3076 25.8652 23.788 25.4274 23.8062 24.8649Z" fill="#FFCDBF"/>
<path d="M22.2838 28.7958H15.9324C14.0662 28.7977 14.2034 27.3116 12.7028 27.3125C12.7025 27.3125 12.1381 27.3127 11.8574 27.3129V28.5201C12.1381 28.5199 12.7025 28.5199 12.7028 28.5199C14.2034 28.519 14.0662 30.0049 15.9324 30.0032H22.2838C22.8551 30.0032 23.3182 29.54 23.3182 28.9687C23.3182 28.7431 23.2453 28.5349 23.1226 28.365C22.9349 28.6255 22.6295 28.7958 22.2838 28.7958Z" fill="#FFBEAB"/>
<path d="M11.5629 21.1094H7.64459C7.34906 21.1094 7.10938 21.3491 7.10938 21.6446V28.7224C7.10938 29.0181 7.34888 29.2578 7.64459 29.2578H11.5629C11.8584 29.2578 12.0981 29.0181 12.0981 28.7224V21.6446C12.0981 21.3491 11.8584 21.1094 11.5629 21.1094Z" fill="#54A0FF"/>
<path d="M8.55811 28.7225V21.6446C8.55811 21.3491 8.79779 21.1094 9.09351 21.1094H7.64459C7.34906 21.1094 7.10938 21.3491 7.10938 21.6446V28.7224C7.10938 29.0181 7.34888 29.2578 7.64459 29.2578H9.09332C8.79779 29.2578 8.55811 29.0181 8.55811 28.7225Z" fill="#338DEF"/>
<path d="M12.7539 11.6051C12.9 11.4654 12.8194 11.2225 12.6174 11.1935L11.0572 10.9716C10.977 10.9601 10.9078 10.9108 10.8719 10.8396L10.1741 9.45476C10.0838 9.2755 9.82288 9.2755 9.73243 9.45476L9.0348 10.8396C8.99891 10.9108 8.92951 10.9603 8.84931 10.9716L7.28925 11.1935C7.08729 11.2223 7.00654 11.4654 7.15284 11.6051L8.28168 12.6831C8.33973 12.7384 8.36609 12.8182 8.35255 12.8966L8.08594 14.4186C8.05152 14.6156 8.26264 14.7659 8.44337 14.6729L9.83881 13.9542C9.91041 13.9174 9.99628 13.9174 10.0679 13.9542L11.4633 14.6729C11.644 14.7659 11.8552 14.6156 11.8207 14.4186L11.5541 12.8966C11.5404 12.8182 11.567 12.7384 11.625 12.6831L12.7539 11.6051Z" fill="#FECA57"/>
<path d="M10.0561 12.6198C10.0698 12.5416 10.0434 12.4618 9.9854 12.4063L8.85637 11.3284C8.74449 11.2216 8.76592 11.0543 8.87267 10.9688C8.86498 10.9706 8.85729 10.9722 8.84923 10.9733L7.28917 11.1954C7.08721 11.2242 7.00664 11.4673 7.15276 11.6069L8.2816 12.6848C8.33965 12.7403 8.3662 12.8201 8.35246 12.8983L8.08605 14.4205C8.05144 14.6175 8.26256 14.7678 8.44328 14.6748L9.8206 13.9655L10.0561 12.6198Z" fill="#F4B537"/>
<path d="M8.99365 10.915L10.5537 10.6929C10.6313 10.6819 10.6985 10.6351 10.7354 10.5675L10.1749 9.45476C10.0844 9.2755 9.82349 9.2755 9.73322 9.45476L9.0354 10.8396C9.01929 10.8714 8.99622 10.8987 8.96875 10.9203C8.97681 10.9183 8.98505 10.9163 8.99365 10.915Z" fill="#F4B537"/>
<path d="M28.8223 11.6051C28.9684 11.4654 28.8877 11.2225 28.6857 11.1935L27.1256 10.9716C27.0454 10.9601 26.9761 10.9108 26.9402 10.8396L26.2425 9.45476C26.1523 9.2755 25.8912 9.2755 25.8009 9.45476L25.1031 10.8396C25.0672 10.9108 24.998 10.9603 24.9178 10.9716L23.3577 11.1935C23.1556 11.2223 23.075 11.4654 23.2211 11.6051L24.35 12.6831C24.408 12.7384 24.4345 12.8182 24.4208 12.8966L24.1544 14.4186C24.1198 14.6156 24.3311 14.7659 24.5116 14.6729L25.9071 13.9542C25.9789 13.9174 26.0646 13.9174 26.1363 13.9542L27.5316 14.6729C27.7123 14.7659 27.9234 14.6156 27.889 14.4186L27.6224 12.8966C27.6087 12.8182 27.6352 12.7384 27.6933 12.6831L28.8223 11.6051Z" fill="#FECA57"/>
<path d="M26.1246 12.6198C26.1383 12.5416 26.1118 12.4618 26.0537 12.4063L24.9249 11.3284C24.813 11.2216 24.8344 11.0543 24.941 10.9688C24.9333 10.9706 24.9256 10.9722 24.9177 10.9733L23.3577 11.1954C23.1557 11.2242 23.0749 11.4673 23.2211 11.6069L24.3501 12.6848C24.4081 12.7403 24.4345 12.8201 24.4208 12.8983L24.1544 14.4205C24.1199 14.6175 24.331 14.7678 24.5118 14.6748L25.8891 13.9655L26.1246 12.6198Z" fill="#F4B537"/>
<path d="M25.062 10.915L26.6221 10.6929C26.6999 10.6819 26.7671 10.6351 26.8037 10.5675L26.2432 9.45476C26.153 9.2755 25.8918 9.2755 25.8016 9.45476L25.1039 10.8396C25.0878 10.8714 25.0648 10.8987 25.0371 10.9203C25.0453 10.9183 25.0534 10.9163 25.062 10.915Z" fill="#F4B537"/>
<path d="M22.5151 9.69438C22.7515 9.46861 22.6209 9.07548 22.2944 9.02898L19.7718 8.66991C19.6421 8.65141 19.5299 8.57176 19.472 8.45659L18.3439 6.21739C18.1978 5.92754 17.7758 5.92754 17.6298 6.21739L16.5017 8.45659C16.4437 8.57176 16.3316 8.65141 16.2018 8.66991L13.6793 9.02898C13.3527 9.07548 13.2223 9.46861 13.4585 9.69438L15.2839 11.4372C15.3778 11.5269 15.4206 11.656 15.3985 11.7825L14.9675 14.2435C14.9118 14.5621 15.2533 14.805 15.5453 14.6547L17.8016 13.4927C17.9177 13.433 18.0561 13.433 18.1722 13.4927L20.4284 14.6547C20.7205 14.805 21.0619 14.5621 21.0061 14.2435L20.5753 11.7825C20.5531 11.656 20.5959 11.5269 20.6897 11.4372L22.5151 9.69438Z" fill="#FECA57"/>
<path d="M17.9073 8.3914C18.0369 8.37291 18.149 8.29308 18.207 8.17809L18.7703 7.06023L18.3456 6.21739C18.1995 5.92754 17.7775 5.92754 17.6315 6.21739L16.5034 8.45659C16.4708 8.52086 16.4212 8.57378 16.3613 8.6115L17.9073 8.3914Z" fill="#F4B537"/>
<path d="M16.6713 13.968L17.1021 11.5069C17.1243 11.3804 17.0814 11.2513 16.9877 11.1617L15.1623 9.41876C14.97 9.23529 15.0206 8.94104 15.2216 8.8125L13.6793 9.03204C13.3527 9.07855 13.2223 9.47168 13.4585 9.69745L15.2839 11.4402C15.3778 11.53 15.4206 11.6591 15.3985 11.7856L14.9675 14.2465C14.9118 14.5651 15.2531 14.8081 15.5453 14.6578L16.668 14.0795C16.6638 14.0438 16.6645 14.0065 16.6713 13.968Z" fill="#F4B537"/>
<path d="M20.625 25.3813C20.625 25.6481 20.8412 25.8643 21.1078 25.8643H22.7433C23.2945 25.8643 23.7654 25.4441 23.8019 24.8984H21.108C20.8412 24.8984 20.625 25.1147 20.625 25.3813Z" fill="#FFBEAB"/>
<path d="M20.625 23.2953C20.625 23.5621 20.8412 23.7784 21.1078 23.7784H22.8409C23.3892 23.7778 23.8363 23.3514 23.8726 22.8125H21.1078C20.8412 22.8125 20.625 23.0287 20.625 23.2953Z" fill="#FFBEAB"/>
<path d="M23.5228 26.9688H21.1078C20.8412 26.9688 20.625 27.185 20.625 27.4516C20.625 27.7184 20.8412 27.9346 21.1078 27.9346H22.4647C23.0156 27.9346 23.4864 27.5144 23.5228 26.9688Z" fill="#FFBEAB"/>
</g>
<defs>
<clipPath id="clip0_2481_5544">
<rect width="24" height="24" fill="white" transform="translate(6 6)"/>
</clipPath>
</defs>
</svg>
