<svg width="44" height="44" viewBox="0 0 44 44" fill="none" xmlns="http://www.w3.org/2000/svg">
<circle cx="22" cy="22" r="22" fill="url(#paint0_linear_1527_1745)"/>
<path d="M31.0282 19.4069C31.1134 18.9876 30.7728 18.4845 30.3471 18.4845L25.4941 17.8137L23.2804 13.4536C23.1952 13.2859 23.1101 13.202 22.9398 13.1182C22.5141 12.8666 22.0033 13.0343 21.7478 13.4536L19.6193 17.8137L14.7663 18.4845C14.5108 18.4845 14.3406 18.5684 14.2554 18.7361C13.9149 19.0715 13.9149 19.5746 14.2554 19.91L17.7462 23.2639L16.8948 28.0433C16.8948 28.211 16.8948 28.3787 16.9799 28.5464C17.2354 28.9657 17.7462 29.1334 18.1719 28.8818L22.5141 26.6179L26.8563 28.8818C26.9415 28.9657 27.1117 28.9657 27.282 28.9657C27.3672 28.9657 27.3672 28.9657 27.4523 28.9657C27.878 28.8818 28.2186 28.4626 28.1334 27.9595L27.282 23.1801L30.7728 19.8261C30.9431 19.7423 31.0282 19.5746 31.0282 19.4069Z" fill="white"/>
<defs>
<linearGradient id="paint0_linear_1527_1745" x1="22" y1="0" x2="22" y2="44" gradientUnits="userSpaceOnUse">
<stop stop-color="#5FAFE0"/>
<stop offset="1" stop-color="#4A90C2"/>
</linearGradient>
</defs>
</svg>
