<svg width="36" height="36" viewBox="0 0 36 36" fill="none" xmlns="http://www.w3.org/2000/svg">
<rect width="36" height="36" rx="10" fill="#FFDFDF"/>
<g clip-path="url(#clip0_2481_5512)">
<path d="M28.8073 13.3984L22.849 7.21098C22.6546 7.00839 22.3567 6.94528 22.0974 7.04968C21.837 7.15509 21.6665 7.40719 21.6665 7.68766V10.6669H21.4374C16.5095 10.6669 12.5 14.6764 12.5 19.6043V20.9793C12.5 21.2982 12.7246 21.5641 13.0353 21.6364C13.0856 21.6483 13.1361 21.6549 13.1865 21.6549C13.4468 21.6549 13.6952 21.5027 13.8144 21.2643C15.1033 18.6857 17.6946 17.0835 20.5775 17.0835H21.6665V20.0625C21.6665 20.343 21.837 20.5951 22.0974 20.7005C22.3549 20.8042 22.6546 20.7418 22.849 20.5392L28.8073 14.3518C29.064 14.0859 29.064 13.6643 28.8073 13.3984Z" fill="#FF3E3E"/>
<path d="M26.2498 28.9971H9.74997C8.23383 28.9971 7 27.7633 7 26.2471V13.414C7 11.8979 8.23383 10.6641 9.74997 10.6641H12.4999C13.0068 10.6641 13.4165 11.0746 13.4165 11.5807C13.4165 12.0867 13.0068 12.4973 12.4999 12.4973H9.74997C9.24392 12.4973 8.8332 12.9088 8.8332 13.414V26.2471C8.8332 26.7522 9.24392 27.1639 9.74997 27.1639H26.2498C26.7557 27.1639 27.1664 26.7522 27.1664 26.2471V18.914C27.1664 18.4079 27.5761 17.9972 28.083 17.9972C28.5899 17.9972 28.9998 18.4079 28.9998 18.914V26.2471C28.9998 27.7633 27.766 28.9971 26.2498 28.9971Z" fill="#607D8B"/>
</g>
<defs>
<clipPath id="clip0_2481_5512">
<rect width="22" height="22" fill="white" transform="translate(7 7)"/>
</clipPath>
</defs>
</svg>
