<svg width="44" height="44" viewBox="0 0 44 44" fill="none" xmlns="http://www.w3.org/2000/svg">
<circle cx="22" cy="22" r="22" fill="url(#paint0_linear_1527_1747)"/>
<path fill-rule="evenodd" clip-rule="evenodd" d="M22.3206 13.3836C22.7316 13.5538 22.9996 13.9549 22.9996 14.3998V27.5998C22.9996 28.0448 22.7316 28.4458 22.3206 28.6161C21.9095 28.7864 21.4364 28.6922 21.1218 28.3776L17.044 24.2998H14.1996C13.5921 24.2998 13.0996 23.8073 13.0996 23.1998V18.7998C13.0996 18.1923 13.5921 17.6998 14.1996 17.6998H17.044L21.1218 13.622C21.4364 13.3074 21.9095 13.2133 22.3206 13.3836Z" fill="white"/>
<path fill-rule="evenodd" clip-rule="evenodd" d="M28.1229 13.2216C28.5525 12.792 29.2489 12.792 29.6786 13.2216C31.6679 15.211 32.9004 17.9625 32.9004 20.9998C32.9004 24.037 31.6679 26.7886 29.6786 28.7779C29.2489 29.2075 28.5525 29.2075 28.1229 28.7779C27.6933 28.3484 27.6933 27.6519 28.1229 27.2223C29.7166 25.6286 30.7004 23.4302 30.7004 20.9998C30.7004 18.5694 29.7166 16.3709 28.1229 14.7772C27.6933 14.3477 27.6933 13.6512 28.1229 13.2216ZM25.0116 16.3329C25.4412 15.9033 26.1377 15.9033 26.5672 16.3329C27.1457 16.9113 27.6177 17.5974 27.9507 18.3594C28.3046 19.1693 28.5004 20.0631 28.5004 20.9998C28.5004 22.822 27.7604 24.4735 26.5672 25.6667C26.1377 26.0962 25.4412 26.0962 25.0116 25.6667C24.5821 25.2371 24.5821 24.5406 25.0116 24.1111C25.8091 23.3136 26.3004 22.2151 26.3004 20.9998C26.3004 20.372 26.1696 19.7776 25.9347 19.2402C25.7133 18.7334 25.3986 18.2754 25.0116 17.8885C24.5821 17.4589 24.5821 16.7624 25.0116 16.3329Z" fill="white"/>
<defs>
<linearGradient id="paint0_linear_1527_1747" x1="22" y1="0" x2="22" y2="44" gradientUnits="userSpaceOnUse">
<stop stop-color="#5FAFE0"/>
<stop offset="1" stop-color="#4A90C2"/>
</linearGradient>
</defs>
</svg>
