<svg width="36" height="36" viewBox="0 0 36 36" fill="none" xmlns="http://www.w3.org/2000/svg">
<rect width="36" height="36" rx="10" fill="#FFF6D9"/>
<g clip-path="url(#clip0_2481_5416)">
<path d="M23.4019 7.90395C23.4019 6.85671 24.2509 6.00781 25.2981 6.00781H10.5391C9.70637 6.00781 9.03125 6.68293 9.03125 7.51571V24.6868H23.4019V10.766V9.80014L23.4019 7.90395Z" fill="#FFE07D"/>
<path d="M24.1537 6.00781C23.1065 6.00781 22.2576 6.85676 22.2576 7.90395V15.4234C22.2576 15.8658 21.967 16.2594 21.5412 16.3795C18.4011 17.2649 16.0996 20.1503 16.0996 23.5736C16.0996 24.4735 16.2588 25.3364 16.5503 26.1354H22.2576H23.4024V16.1014V10.7659V7.90395C23.4024 6.85671 24.2513 6.00781 25.2985 6.00781H24.1537Z" fill="#FFD064"/>
<path d="M21.1101 9.27906H11.6102C11.4102 9.27906 11.248 9.11695 11.248 8.91687C11.248 8.7168 11.4102 8.55469 11.6102 8.55469H21.1101C21.3101 8.55469 21.4723 8.7168 21.4723 8.91687C21.4723 9.11695 21.3101 9.27906 21.1101 9.27906Z" fill="#2B4D66"/>
<path d="M21.1101 12.8884H11.6102C11.4102 12.8884 11.248 12.7263 11.248 12.5262C11.248 12.3262 11.4102 12.1641 11.6102 12.1641H21.1101C21.3101 12.1641 21.4723 12.3262 21.4723 12.5262C21.4723 12.7263 21.3101 12.8884 21.1101 12.8884Z" fill="#2B4D66"/>
<path d="M21.1101 16.5056H11.6102C11.4102 16.5056 11.248 16.3435 11.248 16.1434C11.248 15.9434 11.4102 15.7812 11.6102 15.7812H21.1101C21.3101 15.7812 21.4723 15.9434 21.4723 16.1434C21.4723 16.3435 21.3101 16.5056 21.1101 16.5056Z" fill="#2B4D66"/>
<path d="M21.1101 20.115H11.6102C11.4102 20.115 11.248 19.9529 11.248 19.7528C11.248 19.5527 11.4102 19.3906 11.6102 19.3906H21.1101C21.3101 19.3906 21.4723 19.5527 21.4723 19.7528C21.4723 19.9529 21.3101 20.115 21.1101 20.115Z" fill="#2B4D66"/>
<path d="M21.67 26.1328H8.68083C7.20026 26.1328 6 24.9326 6 23.452V22.9772C6 22.8517 6.10175 22.75 6.22721 22.75H21.67V26.1328Z" fill="#EAB14D"/>
<path d="M16.0996 23.571C16.0996 24.471 16.2588 25.3338 16.5503 26.1328H21.6699V22.75H16.1447C16.1152 23.0197 16.0996 23.2935 16.0996 23.571Z" fill="#E49542"/>
<path d="M23.5743 30.0002C27.1232 30.0002 30.0002 27.1232 30.0002 23.5743C30.0002 20.0254 27.1232 17.1484 23.5743 17.1484C20.0254 17.1484 17.1484 20.0254 17.1484 23.5743C17.1484 27.1232 20.0254 30.0002 23.5743 30.0002Z" fill="#DD636E"/>
<path d="M23.5745 17.1484C23.4042 17.1484 23.2354 17.1552 23.0684 17.1682C26.3807 17.4263 28.9881 20.1958 28.9881 23.5743C28.9881 26.9528 26.3806 29.7223 23.0684 29.9804C23.2354 29.9934 23.4042 30.0002 23.5745 30.0002C27.1234 30.0002 30.0004 27.1232 30.0004 23.5743C30.0004 20.0254 27.1234 17.1484 23.5745 17.1484Z" fill="#DA4A54"/>
<path d="M23.5742 28.3672C26.2213 28.3672 28.3672 26.2213 28.3672 23.5742C28.3672 20.9271 26.2213 18.7812 23.5742 18.7812C20.9271 18.7812 18.7812 20.9271 18.7812 23.5742C18.7812 26.2213 20.9271 28.3672 23.5742 28.3672Z" fill="#F4FBFF"/>
<path d="M23.5745 18.7812C23.3524 18.7812 23.134 18.7967 22.9199 18.8259C25.2573 19.1452 27.0583 21.1492 27.0583 23.5742C27.0583 25.9993 25.2573 28.0033 22.9199 28.3225C23.134 28.3518 23.3524 28.3672 23.5745 28.3672C26.2216 28.3672 28.3675 26.2213 28.3675 23.5742C28.3675 20.9271 26.2216 18.7812 23.5745 18.7812Z" fill="#DAF1F4"/>
<path d="M23.5751 20.6168C23.375 20.6168 23.2129 20.4547 23.2129 20.2547V20.0887C23.2129 19.8887 23.375 19.7266 23.5751 19.7266C23.7751 19.7266 23.9373 19.8887 23.9373 20.0887V20.2547C23.9373 20.4547 23.7752 20.6168 23.5751 20.6168Z" fill="#365E7D"/>
<path d="M25.9208 21.5916C25.8281 21.5916 25.7354 21.5562 25.6646 21.4854C25.5232 21.344 25.5233 21.1147 25.6647 20.9733L25.7821 20.856C25.9235 20.7147 26.1528 20.7146 26.2942 20.8562C26.4356 20.9976 26.4356 21.2269 26.2941 21.3683L26.1768 21.4856C26.1061 21.5562 26.0135 21.5916 25.9208 21.5916Z" fill="#365E7D"/>
<path d="M27.0574 23.9353H26.8915C26.6915 23.9353 26.5293 23.7732 26.5293 23.5731C26.5293 23.3731 26.6914 23.2109 26.8915 23.2109H27.0574C27.2574 23.2109 27.4196 23.3731 27.4196 23.5731C27.4196 23.7732 27.2574 23.9353 27.0574 23.9353Z" fill="#365E7D"/>
<path d="M20.2566 23.9353H20.0907C19.8907 23.9353 19.7285 23.7732 19.7285 23.5731C19.7285 23.3731 19.8906 23.2109 20.0907 23.2109H20.2566C20.4566 23.2109 20.6188 23.3731 20.6188 23.5731C20.6188 23.7732 20.4567 23.9353 20.2566 23.9353Z" fill="#365E7D"/>
<path d="M26.0381 26.3963C25.9454 26.3963 25.8528 26.361 25.7821 26.2903L25.6647 26.1731C25.5233 26.0316 25.5232 25.8023 25.6646 25.6609C25.806 25.5193 26.0353 25.5193 26.1768 25.6608L26.2941 25.778C26.4356 25.9195 26.4356 26.1488 26.2942 26.2902C26.2235 26.361 26.1308 26.3963 26.0381 26.3963Z" fill="#365E7D"/>
<path d="M23.5751 27.4215C23.375 27.4215 23.2129 27.2594 23.2129 27.0593V26.8934C23.2129 26.6934 23.375 26.5312 23.5751 26.5312C23.7751 26.5312 23.9373 26.6934 23.9373 26.8934V27.0593C23.9373 27.2594 23.7752 27.4215 23.5751 27.4215Z" fill="#365E7D"/>
<path d="M21.1103 26.3963C21.0176 26.3963 20.9249 26.3609 20.8541 26.2902C20.7127 26.1487 20.7127 25.9194 20.8541 25.778L20.9714 25.6607C21.1129 25.5193 21.3422 25.5193 21.4836 25.6607C21.625 25.8022 21.625 26.0315 21.4836 26.1729L21.3663 26.2902C21.2956 26.3609 21.2029 26.3963 21.1103 26.3963Z" fill="#365E7D"/>
<path d="M21.2275 21.5916C21.1349 21.5916 21.0422 21.5562 20.9714 21.4855L20.8541 21.3683C20.7127 21.2268 20.7127 20.9975 20.8541 20.856C20.9956 20.7147 21.2249 20.7147 21.3663 20.856L21.4836 20.9733C21.625 21.1148 21.625 21.3441 21.4836 21.4855C21.4129 21.5562 21.3202 21.5916 21.2275 21.5916Z" fill="#365E7D"/>
<path d="M24.5622 23.9328H23.5751C23.375 23.9328 23.2129 23.7706 23.2129 23.5706V21.6591C23.2129 21.459 23.375 21.2969 23.5751 21.2969C23.7751 21.2969 23.9373 21.459 23.9373 21.6591V23.2084H24.5622C24.7623 23.2084 24.9244 23.3705 24.9244 23.5706C24.9244 23.7706 24.7623 23.9328 24.5622 23.9328Z" fill="#2B4D66"/>
<path d="M26.8571 10.7659H23.4023V7.90395C23.4023 6.85671 24.2513 6.00781 25.2985 6.00781C26.3457 6.00781 27.1946 6.85676 27.1946 7.90395V10.4284C27.1947 10.6148 27.0436 10.7659 26.8571 10.7659Z" fill="#EAB14D"/>
<path d="M25.9162 6.11129C25.7225 6.04456 25.5149 6.00781 25.2985 6.00781C24.2513 6.00781 23.4023 6.85676 23.4023 7.90395V10.7659H24.6378V7.90395C24.6377 7.0731 25.1724 6.36756 25.9162 6.11129Z" fill="#E49542"/>
</g>
<defs>
<clipPath id="clip0_2481_5416">
<rect width="24" height="24" fill="white" transform="translate(6 6)"/>
</clipPath>
</defs>
</svg>
