<svg width="44" height="44" viewBox="0 0 44 44" fill="none" xmlns="http://www.w3.org/2000/svg">
<circle cx="22" cy="22" r="22" fill="url(#paint0_linear_1527_1743)"/>
<path d="M12.1564 18.75C11.9471 18.75 11.7464 18.829 11.5983 18.9697C11.4503 19.1103 11.3672 19.3011 11.3672 19.5V22.5C11.3672 22.6989 11.4503 22.8897 11.5983 23.0303C11.7464 23.171 11.9471 23.25 12.1564 23.25C12.3657 23.25 12.5665 23.171 12.7145 23.0303C12.8625 22.8897 12.9456 22.6989 12.9456 22.5V19.5C12.9456 19.3011 12.8625 19.1103 12.7145 18.9697C12.5665 18.829 12.3657 18.75 12.1564 18.75ZM14.6819 17.25C14.4726 17.25 14.2718 17.329 14.1238 17.4697C13.9758 17.6103 13.8927 17.8011 13.8927 18V24C13.8927 24.0985 13.9131 24.196 13.9528 24.287C13.9924 24.378 14.0505 24.4607 14.1238 24.5303C14.1971 24.6 14.2841 24.6552 14.3799 24.6929C14.4756 24.7306 14.5783 24.75 14.6819 24.75C14.7855 24.75 14.8882 24.7306 14.9839 24.6929C15.0797 24.6552 15.1667 24.6 15.24 24.5303C15.3132 24.4607 15.3714 24.378 15.411 24.287C15.4507 24.196 15.4711 24.0985 15.4711 24V18C15.4711 17.8011 15.388 17.6103 15.24 17.4697C15.0919 17.329 14.8912 17.25 14.6819 17.25ZM31.0976 18.75C30.8883 18.75 30.6875 18.829 30.5395 18.9697C30.3915 19.1103 30.3084 19.3011 30.3084 19.5V22.5C30.3084 22.6989 30.3915 22.8897 30.5395 23.0303C30.6875 23.171 30.8883 23.25 31.0976 23.25C31.3069 23.25 31.5076 23.171 31.6556 23.0303C31.8036 22.8897 31.8868 22.6989 31.8868 22.5V19.5C31.8868 19.3011 31.8036 19.1103 31.6556 18.9697C31.5076 18.829 31.3069 18.75 31.0976 18.75ZM28.5721 17.25C28.3628 17.25 28.162 17.329 28.014 17.4697C27.866 17.6103 27.7829 17.8011 27.7829 18V24C27.7829 24.1989 27.866 24.3897 28.014 24.5303C28.162 24.671 28.3628 24.75 28.5721 24.75C28.7814 24.75 28.9821 24.671 29.1301 24.5303C29.2782 24.3897 29.3613 24.1989 29.3613 24V18C29.3613 17.8011 29.2782 17.6103 29.1301 17.4697C28.9821 17.329 28.7814 17.25 28.5721 17.25ZM26.8358 15.75V26.25C26.8358 27.0456 26.5032 27.8087 25.9112 28.3713C25.3192 28.9339 24.5162 29.25 23.679 29.25H19.575C18.7378 29.25 17.9348 28.9339 17.3428 28.3713C16.7508 27.8087 16.4182 27.0456 16.4182 26.25V15.75C16.4182 14.9544 16.7508 14.1913 17.3428 13.6287C17.9348 13.0661 18.7378 12.75 19.575 12.75H23.679C24.5162 12.75 25.3192 13.0661 25.9112 13.6287C26.5032 14.1913 26.8358 14.9544 26.8358 15.75Z" fill="white"/>
<defs>
<linearGradient id="paint0_linear_1527_1743" x1="22" y1="0" x2="22" y2="44" gradientUnits="userSpaceOnUse">
<stop stop-color="#5FAFE0"/>
<stop offset="1" stop-color="#4A90C2"/>
</linearGradient>
</defs>
</svg>
