<svg xmlns="http://www.w3.org/2000/svg" width="23" height="23" fill="none"><path fill="#B2B2B2" fill-rule="evenodd" d="M8.108 1.235q.483.003.899.247l.763.764q1.708 1.214 3.415 0l.763-.764a1.54 1.54 0 0 1 1.168-.18 11.2 11.2 0 0 1 3.19 1.798q.549.413.539 1.1-.088.613-.247 1.213-.012 2.595 2.538 3.077.595.19.876.741.168.62.224 1.258.088 1.4-.134 2.785a1.37 1.37 0 0 1-.832 1.056q-2.925.452-2.717 3.392.186.503.247 1.033a1.33 1.33 0 0 1-.584 1.145 10.7 10.7 0 0 1-2.65 1.573q-1.22.44-1.91-.652-1.58-1.448-3.481-.471-.63.45-1.078 1.078-.576.413-1.258.224a9.9 9.9 0 0 1-3.392-1.999 1.44 1.44 0 0 1-.27-1.168q.98-2.244-.92-3.75a3.7 3.7 0 0 0-1.572-.495 1.37 1.37 0 0 1-.787-.741 4.8 4.8 0 0 1-.18-1.033 12.2 12.2 0 0 1 .18-3.1q.18-.672.831-.92 2.595-.271 2.875-2.853a14 14 0 0 0-.314-1.528q-.001-.444.247-.808a9.5 9.5 0 0 1 2.808-1.775q.378-.16.763-.247m3.37 6.649q2.475.175 3.391 2.47.645 2.493-1.37 4.066-1.926 1.161-3.908.09-2.165-1.553-1.505-4.155.924-2.298 3.391-2.471" clip-rule="evenodd"/></svg>