<svg width="23" height="23" viewBox="0 0 23 23" fill="none" xmlns="http://www.w3.org/2000/svg">
<g clip-path="url(#clip0_2082_5614)">
<path fill-rule="evenodd" clip-rule="evenodd" d="M11.8369 -0.0224609C11.9268 -0.0224609 12.0166 -0.0224609 12.1064 -0.0224609C16.3632 0.761071 19.5451 3.03711 21.6523 6.80566C22.2608 7.99484 22.7025 9.23769 22.9775 10.5342C22.9775 10.624 22.9775 10.7139 22.9775 10.8037C22.3799 10.9033 21.7809 10.9932 21.1807 11.0732C20.4344 7.34118 18.383 4.59344 15.0264 2.83008C13.9302 2.29249 12.7772 1.9406 11.5674 1.77441C11.6449 1.17206 11.7347 0.573104 11.8369 -0.0224609Z" fill="#B2B2B2"/>
<path fill-rule="evenodd" clip-rule="evenodd" d="M16.8682 22.9776C16.4339 22.9776 15.9997 22.9776 15.5654 22.9776C14.3333 22.7891 13.1503 22.4223 12.0166 21.877C7.81528 19.8319 4.49857 16.8147 2.06641 12.8252C1.05498 11.1602 0.358693 9.37826 -0.0224609 7.47955C-0.0224609 7.03033 -0.0224609 6.58111 -0.0224609 6.13189C0.0623147 5.63137 0.249489 5.16715 0.539062 4.73931C1.29653 3.96685 2.06768 3.21067 2.85254 2.47076C3.5725 2.04594 4.2613 2.09087 4.91894 2.60552C5.89972 3.58632 6.88055 4.56713 7.86133 5.54791C8.40834 6.19604 8.46822 6.88483 8.04101 7.61431C7.38345 8.3168 6.70962 9.00559 6.01953 9.68072C5.97807 9.74963 5.95561 9.82451 5.95215 9.90533C6.29306 10.767 6.74974 11.5606 7.32227 12.2862C8.44293 13.6914 9.7232 14.9268 11.1631 15.9922C11.7601 16.3881 12.389 16.725 13.0498 17.003C13.0947 16.9955 13.1396 16.988 13.1846 16.9805C13.8911 16.244 14.6248 15.5402 15.3857 14.8692C16.1111 14.4827 16.785 14.5575 17.4072 15.0938C18.388 16.0746 19.3688 17.0554 20.3496 18.0362C20.9168 18.7836 20.9168 19.5323 20.3496 20.2823C19.6533 20.9786 18.957 21.6749 18.2607 22.3711C17.8363 22.6734 17.3721 22.8756 16.8682 22.9776Z" fill="#B2B2B2"/>
<path fill-rule="evenodd" clip-rule="evenodd" d="M11.5674 4.55957C14.5051 5.03457 16.594 6.6218 17.834 9.32129C18.055 9.89117 18.2272 10.4752 18.3506 11.0732C17.7407 11.2023 17.1267 11.3072 16.5088 11.3877C16.0915 9.22579 14.8786 7.69094 12.8701 6.7832C12.3801 6.59485 11.8785 6.45258 11.3652 6.35645C11.426 5.75836 11.4934 5.15941 11.5674 4.55957Z" fill="#B2B2B2"/>
</g>
<defs>
<clipPath id="clip0_2082_5614">
<rect width="23" height="23" fill="white"/>
</clipPath>
</defs>
</svg>
