<svg width="26" height="19" viewBox="0 0 26 19" fill="none" xmlns="http://www.w3.org/2000/svg">
<path opacity="0.993" fill-rule="evenodd" clip-rule="evenodd" d="M2.79439 0.00396641C7.4315 -0.00660804 12.0685 0.00396641 16.7056 0.0356264C18.4719 0.504828 19.4237 1.68682 19.5607 3.58155C19.4797 7.52848 19.4797 11.4755 19.5607 15.4224C19.4239 17.3169 18.4722 18.4989 16.7056 18.9683C12.0888 19.0106 7.47196 19.0106 2.85514 18.9683C1.33342 18.6275 0.39183 17.6671 0.0303753 16.0873C-0.0101251 11.6971 -0.0101251 7.30686 0.0303753 2.91669C0.395754 1.36446 1.31709 0.393575 2.79439 0.00396641Z" fill="#B2B2B2"/>
<path opacity="0.976" fill-rule="evenodd" clip-rule="evenodd" d="M24.6632 2.47384C25.334 2.3534 25.7694 2.62783 25.9693 3.297C26.0098 7.43389 26.0098 11.5708 25.9693 15.7077C25.6417 16.5674 25.0848 16.7678 24.2987 16.3093C23.3339 15.4718 22.372 14.6381 21.4132 13.8081C21.3727 10.9376 21.3727 8.06709 21.4132 5.1966C22.4523 4.22932 23.5357 3.32176 24.6632 2.47384Z" fill="#B2B2B2"/>
</svg>
