<svg width="29" height="29" viewBox="0 0 29 29" fill="none" xmlns="http://www.w3.org/2000/svg">
<circle cx="14.5" cy="14.5" r="14.5" fill="url(#paint0_linear_1385_2587)"/>
<path opacity="0.962" fill-rule="evenodd" clip-rule="evenodd" d="M20.5914 6.499C21.2099 6.46152 21.7537 6.64089 22.223 7.03708C22.5205 7.31132 22.7925 7.6064 23.0388 7.92232C23.5313 8.74678 23.5081 9.55682 22.9694 10.3524C20.3137 13.0081 17.658 15.6638 15.0023 18.3195C14.8133 18.4481 14.6051 18.5291 14.3774 18.5625C13.5346 18.6596 12.6898 18.7174 11.8432 18.7361C11.3684 18.5854 11.137 18.2614 11.1489 17.7641C11.2048 16.9214 11.2916 16.0825 11.4092 15.2472C11.4488 15.1218 11.5066 15.0061 11.5828 14.9001C14.1913 12.2569 16.8123 9.62431 19.4458 7.00237C19.7877 6.73877 20.1695 6.57097 20.5914 6.499ZM20.6956 7.6446C20.9174 7.6422 21.1257 7.69427 21.3204 7.80082C21.5692 8.04961 21.818 8.2984 22.0668 8.5472C22.3052 8.88586 22.3168 9.233 22.1015 9.58865C21.847 9.84322 21.5924 10.0978 21.3378 10.3524C20.7418 9.75643 20.1459 9.16051 19.55 8.56455C19.793 8.32155 20.036 8.07854 20.279 7.83553C20.4103 7.74775 20.5492 7.68411 20.6956 7.6446ZM18.7168 9.38036C19.3231 9.9693 19.9248 10.5653 20.522 11.1682C18.4506 13.2395 16.3793 15.3109 14.308 17.3822C13.6515 17.4719 12.9919 17.5355 12.3292 17.5732C12.3668 16.9104 12.4305 16.2508 12.5201 15.5944C14.5927 13.5276 16.6582 11.4563 18.7168 9.38036Z" fill="white"/>
<path opacity="0.967" fill-rule="evenodd" clip-rule="evenodd" d="M9.86339 7.99143C11.4719 7.98564 13.0804 7.99143 14.6888 8.00879C14.9597 8.0946 15.0986 8.27975 15.1054 8.56423C15.0952 8.86211 14.9447 9.04726 14.6541 9.11967C13.0919 9.13123 11.5297 9.14283 9.96754 9.15439C9.2028 9.34057 8.74572 9.82078 8.59629 10.5951C8.57314 13.6732 8.57314 16.7512 8.59629 19.8293C8.74094 20.6683 9.23273 21.1601 10.0717 21.3047C13.1498 21.3279 16.2278 21.3279 19.3059 21.3047C20.0802 21.1553 20.5604 20.6982 20.7466 19.9335C20.7582 18.3713 20.7698 16.8091 20.7813 15.2469C20.9437 14.8146 21.2387 14.6931 21.6666 14.8824C21.7835 14.9645 21.8588 15.0744 21.8922 15.2122C21.9154 16.8207 21.9154 18.4291 21.8922 20.0376C21.721 21.111 21.1366 21.8574 20.1391 22.2767C19.8916 22.3656 19.637 22.4234 19.3754 22.4503C16.251 22.4735 13.1266 22.4735 10.0023 22.4503C8.90461 22.327 8.12352 21.7658 7.65898 20.7666C7.54606 20.5001 7.47663 20.2224 7.45069 19.9335C7.41666 16.7041 7.42823 13.4756 7.4854 10.2479C7.8066 8.99703 8.59926 8.24487 9.86339 7.99143Z" fill="white"/>
<defs>
<linearGradient id="paint0_linear_1385_2587" x1="14.5" y1="0" x2="14.5" y2="29" gradientUnits="userSpaceOnUse">
<stop stop-color="#5FAFE0"/>
<stop offset="1" stop-color="#EC4899"/>
</linearGradient>
</defs>
</svg>
