<svg width="29" height="29" viewBox="0 0 29 29" fill="none" xmlns="http://www.w3.org/2000/svg">
<circle cx="14.5" cy="14.5" r="14.5" fill="#B267FF"/>
<path opacity="0.962" fill-rule="evenodd" clip-rule="evenodd" d="M20.5907 6.49814C21.2092 6.46067 21.753 6.64003 22.2223 7.03623C22.5198 7.31046 22.7917 7.60554 23.0381 7.92147C23.5305 8.74593 23.5074 9.55596 22.9687 10.3515C20.313 13.0072 17.6572 15.663 15.0015 18.3187C14.8126 18.4473 14.6043 18.5283 14.3767 18.5617C13.5338 18.6587 12.6891 18.7166 11.8424 18.7353C11.3677 18.5846 11.1363 18.2606 11.1481 17.7632C11.2041 16.9206 11.2909 16.0816 11.4085 15.2464C11.448 15.121 11.5059 15.0052 11.5821 14.8992C14.1905 12.256 16.8115 9.62345 19.4451 7.00151C19.7869 6.73791 20.1688 6.57012 20.5907 6.49814ZM20.6948 7.64375C20.9167 7.64134 21.1249 7.69342 21.3197 7.79996C21.5685 8.04876 21.8173 8.29755 22.0661 8.54634C22.3045 8.885 22.3161 9.23214 22.1008 9.5878C21.8462 9.84236 21.5916 10.097 21.3371 10.3515C20.7411 9.75558 20.1452 9.15966 19.5492 8.5637C19.7922 8.32069 20.0352 8.07769 20.2782 7.83468C20.4096 7.7469 20.5485 7.68325 20.6948 7.64375ZM18.7161 9.37951C19.3224 9.96845 19.9241 10.5644 20.5212 11.1673C18.4499 13.2387 16.3786 15.31 14.3072 17.3814C13.6508 17.471 12.9912 17.5347 12.3285 17.5723C12.3661 16.9095 12.4297 16.25 12.5194 15.5935C14.5919 13.5268 16.6575 11.4554 18.7161 9.37951Z" fill="white"/>
<path opacity="0.967" fill-rule="evenodd" clip-rule="evenodd" d="M9.86364 7.99094C11.4722 7.98515 13.0806 7.99094 14.6891 8.0083C14.96 8.09411 15.0988 8.27926 15.1056 8.56374C15.0954 8.86163 14.9449 9.04677 14.6543 9.11918C13.0922 9.13074 11.53 9.14234 9.96778 9.1539C9.20305 9.34008 8.74596 9.82029 8.59653 10.5946C8.57339 13.6727 8.57339 16.7507 8.59653 19.8288C8.74118 20.6678 9.23298 21.1596 10.0719 21.3042C13.15 21.3274 16.2281 21.3274 19.3062 21.3042C20.0805 21.1548 20.5607 20.6977 20.7469 19.933C20.7584 18.3708 20.77 16.8086 20.7816 15.2464C20.9439 14.8141 21.239 14.6926 21.6668 14.8819C21.7838 14.964 21.859 15.074 21.8925 15.2117C21.9156 16.8202 21.9156 18.4287 21.8925 20.0371C21.7212 21.1105 21.1369 21.8569 20.1393 22.2763C19.8919 22.3651 19.6373 22.423 19.3756 22.4498C16.2512 22.473 13.1269 22.473 10.0025 22.4498C8.90486 22.3265 8.12376 21.7653 7.65922 20.7661C7.54631 20.4996 7.47688 20.2219 7.45093 19.933C7.4169 16.7037 7.42847 13.4751 7.48564 10.2474C7.80684 8.99655 8.5995 8.24438 9.86364 7.99094Z" fill="white"/>
</svg>
