<svg width="22" height="17" viewBox="0 0 22 17" fill="none" xmlns="http://www.w3.org/2000/svg">
<path d="M5.42654 16.4667C8.42353 16.4667 10.8531 12.7805 10.8531 8.23337C10.8531 3.68621 8.42353 0 5.42654 0C2.42954 0 0 3.68621 0 8.23337C0 12.7805 2.42954 16.4667 5.42654 16.4667Z" fill="#ECF0F1"/>
<path d="M16.2801 16.4667C19.2771 16.4667 21.7066 12.7805 21.7066 8.23337C21.7066 3.68621 19.2771 0 16.2801 0C13.2831 0 10.8535 3.68621 10.8535 8.23337C10.8535 12.7805 13.2831 16.4667 16.2801 16.4667Z" fill="#ECF0F1"/>
<path d="M4.49049 13.8445C6.55738 13.8445 8.23293 11.3312 8.23293 8.23085C8.23293 5.13051 6.55738 2.61719 4.49049 2.61719C2.42359 2.61719 0.748047 5.13051 0.748047 8.23085C0.748047 11.3312 2.42359 13.8445 4.49049 13.8445Z" fill="#2FA8CC"/>
<path d="M15.344 13.8445C17.4109 13.8445 19.0864 11.3312 19.0864 8.23085C19.0864 5.13051 17.4109 2.61719 15.344 2.61719C13.2771 2.61719 11.6016 5.13051 11.6016 8.23085C11.6016 11.3312 13.2771 13.8445 15.344 13.8445Z" fill="#2FA8CC"/>
<path d="M4.1158 11.9771C5.56263 11.9771 6.73551 10.3015 6.73551 8.23463C6.73551 6.16774 5.56263 4.49219 4.1158 4.49219C2.66898 4.49219 1.49609 6.16774 1.49609 8.23463C1.49609 10.3015 2.66898 11.9771 4.1158 11.9771Z" fill="#35495E"/>
<path d="M14.9693 11.9771C16.4161 11.9771 17.589 10.3015 17.589 8.23463C17.589 6.16774 16.4161 4.49219 14.9693 4.49219C13.5225 4.49219 12.3496 6.16774 12.3496 8.23463C12.3496 10.3015 13.5225 11.9771 14.9693 11.9771Z" fill="#35495E"/>
<path d="M5.98797 6.73765C6.60803 6.73765 7.1107 6.23499 7.1107 5.61492C7.1107 4.99485 6.60803 4.49219 5.98797 4.49219C5.3679 4.49219 4.86523 4.99485 4.86523 5.61492C4.86523 6.23499 5.3679 6.73765 5.98797 6.73765Z" fill="#ECF0F1"/>
<path d="M16.8415 6.73765C17.4616 6.73765 17.9642 6.23499 17.9642 5.61492C17.9642 4.99485 17.4616 4.49219 16.8415 4.49219C16.2214 4.49219 15.7188 4.99485 15.7188 5.61492C15.7188 6.23499 16.2214 6.73765 16.8415 6.73765Z" fill="#ECF0F1"/>
</svg>
