<svg width="83" height="83" viewBox="0 0 83 83" fill="none" xmlns="http://www.w3.org/2000/svg">
<g clip-path="url(#clip0_125_2137)">
<path d="M41.1583 82.3166C63.8894 82.3166 82.3166 63.8894 82.3166 41.1583C82.3166 18.4272 63.8894 0 41.1583 0C18.4272 0 0 18.4272 0 41.1583C0 63.8894 18.4272 82.3166 41.1583 82.3166Z" fill="#F3F3F3"/>
<path d="M55.4388 44.0119C49.9275 44.0119 45.4424 48.4931 45.4424 54C45.4424 59.5068 49.9273 63.9881 55.4388 63.9881C60.9503 63.9881 65.4352 59.5068 65.4352 54C65.4352 48.4931 60.9502 44.0119 55.4388 44.0119ZM59.3045 55.0089C59.0367 55.2765 58.6735 55.4269 58.2948 55.4269C57.9162 55.4269 57.553 55.2765 57.2852 55.0089L56.8668 54.5908V56.8537C56.8668 57.6425 56.2281 58.2806 55.4388 58.2806C54.6496 58.2806 54.0108 57.6425 54.0108 56.8537V54.5908L53.5925 55.0089C53.0346 55.5663 52.1309 55.5663 51.5732 55.0089C51.0154 54.4514 51.0153 53.5485 51.5732 52.9911L54.4276 50.1391C54.5609 50.0061 54.7193 49.9007 54.8937 49.8292C55.443 49.6022 56.057 49.7451 56.4504 50.1391L59.3048 52.9911C59.4374 53.1236 59.5426 53.2808 59.6143 53.454C59.6861 53.6271 59.723 53.8127 59.723 54.0001C59.7229 54.1875 59.686 54.373 59.6142 54.5461C59.5423 54.7192 59.4371 54.8765 59.3045 55.0089ZM32.5899 29.7431C33.3778 29.7431 34.0179 29.1036 34.0179 28.3162C34.0179 27.5289 33.3778 26.8894 32.5899 26.8894C31.8019 26.8894 31.1619 27.5289 31.1619 28.3162C31.1619 29.1036 31.8019 29.7431 32.5899 29.7431ZM30.8493 35.9857L36.0176 42.4414L45.7546 30.2782C46.2985 29.601 47.4421 29.601 47.986 30.2782L56.8082 41.2964C56.8276 41.2986 56.8472 41.3001 56.8667 41.3023V22.6087C56.8667 20.2483 54.9449 18.3281 52.5825 18.3281H21.1654C18.803 18.3281 16.8812 20.2483 16.8812 22.6087V50.6448L28.6181 35.9857C29.162 35.3085 30.3056 35.3085 30.8493 35.9857ZM32.5899 24.0356C34.9523 24.0356 36.874 25.9558 36.874 28.3162C36.874 30.6767 34.9523 32.5969 32.5899 32.5969C30.2274 32.5969 28.3057 30.6767 28.3057 28.3162C28.3057 25.9558 30.2274 24.0356 32.5899 24.0356ZM53.2182 41.3822L46.8703 33.4538L37.1334 45.617C36.5895 46.2942 35.4459 46.2942 34.902 45.617L29.7337 39.1613L17.9237 53.9129C18.71 54.8314 19.8636 55.4269 21.1654 55.4269H42.7306C42.677 54.9523 42.5862 54.4886 42.5862 54C42.5862 47.6783 47.1903 42.44 53.2182 41.3822Z" fill="url(#paint0_linear_125_2137)"/>
</g>
<defs>
<linearGradient id="paint0_linear_125_2137" x1="41.1582" y1="55.4269" x2="41.1582" y2="18.3281" gradientUnits="userSpaceOnUse">
<stop stop-color="#CDCDCD"/>
<stop offset="1" stop-color="#D3D3D3"/>
</linearGradient>
<clipPath id="clip0_125_2137">
<rect width="82.3166" height="82.3166" fill="white"/>
</clipPath>
</defs>
</svg>
