<svg width="109" height="109" viewBox="0 0 109 109" fill="none" xmlns="http://www.w3.org/2000/svg">
<path opacity="0.996" fill-rule="evenodd" clip-rule="evenodd" d="M49.6035 0C52.8678 0 56.1322 0 59.3965 0C78.4811 2.31802 92.8512 11.7562 102.507 28.3145C106.061 35.0137 108.225 42.1102 109 49.6035C109 52.7969 109 55.9902 109 59.1836C107.457 74.2637 100.928 86.6823 89.4141 96.4395C88.7571 95.8597 88.0473 95.3275 87.2852 94.8428C81.0404 91.7203 74.7955 88.5981 68.5508 85.4756C66.7915 84.264 65.7626 82.5965 65.4639 80.4727C65.3219 77.918 65.3219 75.3633 65.4639 72.8086C68.5744 69.0023 70.9162 64.7445 72.4893 60.0352C74.6718 59.2202 75.9492 57.6591 76.3213 55.3516C76.4633 52.442 76.4633 49.5326 76.3213 46.623C76.0318 45.4053 75.4642 44.3409 74.6182 43.4297C77.8939 23.8578 69.6976 14.9518 50.0293 16.7119C44.9797 17.0549 40.7573 19.0774 37.3623 22.7793C36.2274 24.4107 35.3758 26.1847 34.8076 28.1016C34.5368 33.2033 34.3948 38.3126 34.3818 43.4297C33.5358 44.3409 32.9682 45.4053 32.6787 46.623C32.5367 49.6035 32.5367 52.584 32.6787 55.5645C33.0308 57.1905 33.8824 58.4679 35.2334 59.3965C36.3968 64.3481 38.5258 68.8188 41.6201 72.8086C41.7621 75.4342 41.7621 78.06 41.6201 80.6855C41.2703 82.8076 40.1705 84.4043 38.3203 85.4756C33.2109 88.2432 28.1016 91.0107 22.9922 93.7783C21.7061 94.4911 20.4997 95.3073 19.373 96.2266C8.04346 86.5554 1.58577 74.2786 0 59.3965C0 56.1322 0 52.8678 0 49.6035C2.31793 30.5191 11.7561 16.1491 28.3145 6.49316C35.0143 2.93902 42.1106 0.774624 49.6035 0Z" fill="#C5C5C5"/>
<path opacity="0.999" fill-rule="evenodd" clip-rule="evenodd" d="M89.4141 96.4395C80.7068 103.649 70.701 107.836 59.3965 109C56.1322 109 52.8678 109 49.6035 109C38.1802 107.844 28.1035 103.586 19.373 96.2266C20.4997 95.3074 21.7061 94.4911 22.9922 93.7784C28.1016 91.0108 33.2109 88.2432 38.3203 85.4757C40.1705 84.4044 41.2703 82.8077 41.6201 80.6856C41.7621 78.06 41.7621 75.4342 41.6201 72.8087C38.5258 68.8189 36.3968 64.3482 35.2334 59.3966C33.8824 58.4679 33.0308 57.1906 32.6787 55.5645C32.5367 52.5841 32.5367 49.6036 32.6787 46.6231C32.9682 45.4054 33.5358 44.3409 34.3818 43.4298C34.3948 38.3127 34.5368 33.2033 34.8076 28.1016C35.3758 26.1848 36.2274 24.4107 37.3623 22.7794C40.7573 19.0775 44.9797 17.055 50.0293 16.712C69.6976 14.9519 77.8939 23.8579 74.6182 43.4298C75.4642 44.3409 76.0318 45.4054 76.3213 46.6231C76.4633 49.5327 76.4633 52.4421 76.3213 55.3516C75.9492 57.6592 74.6718 59.2203 72.4893 60.0352C70.9162 64.7446 68.5744 69.0024 65.4639 72.8087C65.3219 75.3633 65.3219 77.918 65.4639 80.4727C65.7626 82.5965 66.7915 84.2641 68.5508 85.4757C74.7955 88.5981 81.0404 91.7204 87.2852 94.8428C88.0473 95.3276 88.7571 95.8598 89.4141 96.4395Z" fill="#E6EBEC"/>
</svg>
