<svg width="26" height="26" viewBox="0 0 26 26" fill="none" xmlns="http://www.w3.org/2000/svg">
<g clip-path="url(#clip0_1385_2583)">
<path opacity="0.982" fill-rule="evenodd" clip-rule="evenodd" d="M12.2357 0.114477C12.462 0.116164 12.6883 0.117851 12.9146 0.119538C13.1005 0.181787 13.2777 0.272 13.4461 0.390229C16.4864 3.47624 19.5267 6.56221 22.567 9.64822C22.8782 10.1649 22.9065 10.6986 22.6521 11.2492C22.3032 11.6412 21.9366 12.0184 21.5525 12.3807C20.9778 12.7773 20.3958 12.7891 19.8064 12.4162C18.0496 10.633 16.2928 8.84976 14.5359 7.06656C14.4786 12.5947 14.4212 18.1228 14.3638 23.6509C14.2877 24.3115 13.9369 24.7453 13.3115 24.9525C12.681 24.9478 12.0506 24.9431 11.4202 24.9384C10.8089 24.7163 10.4808 24.2774 10.4359 23.6216C10.4608 18.1094 10.4857 12.5973 10.5106 7.08505C8.77629 8.79373 7.04194 10.5024 5.30759 12.2111C4.68543 12.6694 4.0549 12.6809 3.41599 12.2455C3.03734 11.8775 2.67647 11.4949 2.33338 11.0978C2.08717 10.5434 2.12348 10.0102 2.4423 9.49821C5.52831 6.45786 8.61428 3.41756 11.7003 0.377215C11.8704 0.26151 12.0489 0.173948 12.2357 0.114477Z" fill="black"/>
</g>
<defs>
<clipPath id="clip0_1385_2583">
<rect width="24.8293" height="24.8293" fill="white" transform="translate(0 24.8286) rotate(-89.5729)"/>
</clipPath>
</defs>
</svg>
